<?xml version="1.0" encoding="utf-8"?>
<!-- Generator: Adobe Illustrator 22.1.0, SVG Export Plug-In . SVG Version: 6.00 Build 0)  -->
<svg version="1.1" xmlns="http://www.w3.org/2000/svg" xmlns:xlink="http://www.w3.org/1999/xlink" x="0px" y="0px"
	 viewBox="0 0 256 256" style="enable-background:new 0 0 256 256;" xml:space="preserve">
<style type="text/css">
	.st0{fill:none;}
	.st1{fill:#00427E;}
	.st2{opacity:0.4;fill:#9DDCF9;enable-background:new    ;}
	.st3{display:none;}
	.st4{display:inline;}
	.st5{fill:#3FA9F5;}
	.st6{fill:#1D2731;}
	.st7{fill:#ED1E79;}
	.st8{fill:#FF7BAC;}
	.st9{fill:url(#SVGID_1_);}
	.st10{fill:url(#SVGID_2_);}
	.st11{fill:url(#SVGID_3_);}
	.st12{fill:url(#SVGID_4_);}
	.st13{fill:url(#SVGID_5_);}
	.st14{fill:url(#SVGID_6_);}
	.st15{fill:url(#SVGID_7_);}
	.st16{fill:url(#SVGID_8_);}
	.st17{fill:url(#SVGID_9_);}
	.st18{fill:#51E9D2;}
	.st19{display:none;fill:#51E9D2;}
	.st20{fill:#21125E;}
	.st21{fill:url(#SVGID_10_);}
	.st22{fill:url(#SVGID_11_);}
	.st23{fill:url(#SVGID_12_);}
	.st24{fill:url(#SVGID_13_);}
	.st25{display:inline;fill:url(#SVGID_14_);}
	.st26{fill:url(#SVGID_15_);}
	.st27{fill:url(#SVGID_16_);}
	.st28{fill:url(#SVGID_17_);}
	.st29{fill:url(#SVGID_18_);}
	.st30{font-family:'TamilMN';}
	.st31{font-size:36.0352px;}
	.st32{fill:#FFFFFF;}
</style>
<pattern  y="256" width="108.3" height="109.6" patternUnits="userSpaceOnUse" id="Jive" viewBox="47.6 -131.8 108.3 109.6" style="overflow:visible;">
	<g>
		<rect x="47.6" y="-131.8" class="st0" width="108.3" height="109.6"/>
		<g>
			<rect x="47.6" y="-131.8" class="st0" width="108.3" height="109.6"/>
			<g>
				<path class="st1" d="M135-166.6c0,0.1,0.1,0.2,0.2,0.2c12.9,0.1,24.8,3.3,34,11.5c-8-5.6-22.9-7.5-31.5-3.6
					c-0.1,0-0.2,0.2-0.1,0.3c0,0.1,0.1,0.2,0.3,0.2c10.7-0.3,19.3,3,26,9c-6.9,0.4-12.6,4.7-12.6,9.8c0,0.1,0.1,0.2,0.2,0.2
					c0.1,0,0.2,0,0.3-0.1c1.1-2.5,4.7-3.8,8.6-2.9c4.2,1,7,4.2,6.3,7.2c-0.5,2-2.4,3.4-5,3.8c-0.1,0-0.2,0.1-0.2,0.3
					c0,0.1,0.1,0.2,0.2,0.2c1.1,0.1,2.2,0.1,3.3,0c6.5-0.6,11.5-4.6,11.9-9.2c4.7,0.5,8.9,3.2,10.4,6.8c0,0.1,0.2,0.2,0.3,0.2
					s0.2-0.1,0.2-0.2c0.4-4.8-1.3-7.8-5-10.9c5.4,2.1,11.4,2.2,17.3-0.5c0.1,0,0.2-0.2,0.1-0.3c0-0.1-0.1-0.2-0.2-0.2
					c-4.9-0.2-8.4-1.8-11.7-5.1c18.3,5.1,33.1-6.2,28-23.1c0-0.1-0.1-0.2-0.3-0.2c-0.1,0-0.2,0.1-0.2,0.2
					c-0.9,9.7-7.7,16.1-17.9,17.1c5.4-2.1,11-7,11.6-15.5c0-0.1-0.1-0.2-0.2-0.3c-0.1,0-0.2,0-0.3,0.1c-2.8,6.2-8.3,9.3-14.2,9.8
					c6.3-2.6,10.4-8.6,11.6-16.4c0-0.1-0.1-0.2-0.2-0.3c-0.1,0-0.2,0-0.3,0.1c-3.9,7.6-12.2,12.8-22.4,8.8
					c-10.6-4.1-15.3-16.4-16.3-25c0-0.1-0.1-0.2-0.2-0.2c-0.1,0-0.2,0.1-0.3,0.2c-3.7,15.7,3.6,31.9,16.6,38.8
					c-7.1-2-13.4-6.3-17-13.4c-8.3-1-14-3.9-16.9-9.2c-0.1-0.1-0.2-0.2-0.3-0.1c-0.1,0-0.2,0.1-0.2,0.3c0.2,2.1,0.9,6.3,4.1,8.3
					c-7,0-12.5,0.9-17.8,3C135.1-166.8,135-166.7,135-166.6z M164.5-220c-0.1,0.1-0.2,0.1-0.3,0c-0.1-0.1-0.1-0.2,0-0.3
					c1.6-2.8,0.1-6.8-3.1-6.8c-5.7,0-8.5,10.8-7.6,20.6c2.2-5.8,4-8.1,7.3-10.8c0.1-0.1,0.2-0.1,0.3,0s0.1,0.2,0.1,0.3
					c-4.9,9.1-5.9,16.1-5.9,24.1c1.5-6,3.2-9.3,8.1-14.4c0.1-0.1,0.2-0.1,0.3,0c0.1,0.1,0.1,0.2,0.1,0.3
					c-5.3,11.6-4.9,24.4-0.9,34.3c0,0.1,0,0.2-0.1,0.3s-0.2,0.1-0.3,0c-5.2-2.6-8.3-4.2-12.8-10.4c1.4-7.4,0.2-11-3.2-17.2
					c3.9,9.9,1.8,23.9-8.2,29.6c-0.1,0.1-0.2,0-0.3-0.1c-0.1-0.1-0.1-0.2,0-0.3c3.8-4,6.5-10.6,4.2-17.9
					c1.5,10.4-7.6,19.1-17.8,19.1c-9.6,0-16.2-7.5-15.6-14.9c0.5-7.4,5.4-11,9.7-12.5c0.1,0,0.2,0,0.3,0.1c0.1,0.1,0,0.2,0,0.3
					c-5.6,5.7-6.4,16.5,3.6,19.8c-5.9-5.1-3.7-16.8,5.7-17.7c0.1,0,0.2,0.1,0.3,0.2c0,0.1,0,0.2-0.1,0.3c-2,1.3-3.7,3.8-3.7,6.6
					c0,4.7,3.4,6.5,5.7,6.5c3.4,0,6.3-3.3,6.3-8.2c0-5.8-5.3-10.7-12-11.4c-6.6-0.7-12.8,2.2-15.8,6.5c-0.1,0.1-0.2,0.1-0.3,0.1
					c-0.1-0.1-0.2-0.2-0.1-0.3c3-11.7,16.8-16.9,26.9-9.5c-6.6-7.5-17-7.6-25.7,0.1c-0.1,0.1-0.2,0.1-0.3,0
					c-0.1-0.1-0.1-0.2-0.1-0.3c2.7-5.4,9.3-11.8,18.6-10.9c8.6,0.9,13.5,9,14.5,15.7c0.6-8.5-1.4-14.5-8.8-20.1
					c-0.1-0.1-0.1-0.2-0.1-0.3c0.1-0.1,0.2-0.2,0.3-0.1c6.8,2,12.2,5.4,15,12.5c0-6.2-2.1-12.4-7.5-16.5c-0.1-0.1-0.1-0.2-0.1-0.3
					c0-0.1,0.2-0.2,0.3-0.1c3.5,1,6.2,2.5,8.1,5.2c1.3-11.1,6.5-17.7,12.5-17.7c4.1,0,7.2,3,7.2,7.9
					C169.3-226.2,167.8-222.2,164.5-220z M263.7-128.4c-3.2,3.9-9.5,5.4-16.4,4c0.5,4.3-0.3,8.8-1.6,11.5c-0.1,0.1-0.2,0.2-0.3,0.1
					c-0.1,0-0.2-0.1-0.2-0.3c0.4-8.8-4.6-15.8-13.4-18.9c6.9,4.8,8.9,14.2,5.6,19.1c-0.1,0.1-0.2,0.1-0.3,0.1s-0.2-0.2-0.2-0.3
					c0.4-2.1-0.6-4.7-2.7-6.7c-2.9-2.8-6.8-3.5-8.8-1.4c-2,2-1.2,5.9,1.7,8.8c1.1,1,2.3,1.8,3.4,2.2c0.1,0,0.2,0.2,0.2,0.3
					s-0.1,0.2-0.2,0.2c-6.4,0.6-10.8-3.3-13.5-7.9c-2.8-4.7-7.6-8.4-13.2-7.7c-0.1,0-0.2-0.1-0.3-0.2c0-0.1,0-0.2,0.1-0.3
					c2.8-1.7,5.9-2.4,9.9-1.1c-5.8-4.9-14-7.7-21.8-5.2c-0.1,0-0.2,0-0.3-0.1c-0.1-0.1-0.1-0.2,0-0.3c5.9-6.6,17.7-6.7,25.1-1.4
					c-3-4.3-7.1-7.5-14.3-8.5c-0.1,0-0.2-0.1-0.2-0.2c0-0.1,0.1-0.2,0.2-0.3c8.3-3.1,16.6,0,23.4,8.2c-3-6.4-7.9-11.5-14.8-14
					c-0.1,0-0.2-0.2-0.2-0.3s0.1-0.2,0.2-0.2c3.9-0.1,7.5,0.9,12.3,3.6c-3.5-5.7-2.7-15.6,2.4-22.3c0.1-0.1,0.2-0.1,0.3-0.1
					s0.2,0.2,0.1,0.3c-1.2,7.2,1.3,15.3,5.6,19.6c-2.2-7.6,0-14.6,5.9-19.6c0.1-0.1,0.2-0.1,0.3,0c0.1,0,0.1,0.1,0.2,0.2
					c1.2,9.4,11.8,19,20.6,19.8c0.1,0,0.2,0.1,0.2,0.2c0,0.1-0.1,0.2-0.2,0.3c-4.3,1-8.7,0.5-12.4-1c2.7,2.9,5.9,5.1,9.6,6.2
					c0.1,0,0.2,0.2,0.2,0.3c0,0.1-0.1,0.2-0.2,0.2c-4.5,0.3-8.9-1-12.7-3.5c4.4,6.6,11,11.5,19.4,13.5c0.1,0,0.2,0.1,0.2,0.3
					c0,0.1-0.1,0.2-0.2,0.2c-11.9,1.3-21.7-3.3-28.2-11.9c1.6,4.9,6.4,9.8,12.9,12.6c5.8,2.5,11.9,2.9,16.4,1.5c0.1,0,0.2,0,0.3,0.1
					C263.8-128.6,263.8-128.5,263.7-128.4z M210.8-204c4.8,10.5,4.5,18.7,0.6,29.1c0,0.1-0.2,0.2-0.3,0.2s-0.2-0.1-0.2-0.3
					c0.6-12.6-2.8-21.7-10.3-27.8c8.2,9.9,4.4,29.6-8.8,29.6c-9.6,0-17.5-8-19.5-17.5c0-0.1,0-0.2,0.2-0.3c0.1,0,0.2,0,0.3,0.1
					c2.8,4.8,7.4,7.9,12.5,7.9c8.1,0,10.5-6.5,10.5-11c0-6.2-4.9-11.3-8.7-11.3c-3.4,0-5,2.8-5,4.9c0,3.9,3,7.2,6.4,8.2
					c0.1,0,0.2,0.2,0.2,0.3c0,0.1-0.1,0.2-0.2,0.2c-4.1,0-7.6-1.9-9.6-5.6c-0.3,2.9-0.3,4.7,0.6,7.7c0,0.1,0,0.2-0.1,0.3
					c-0.1,0.1-0.2,0-0.3-0.1c-7.4-9.4-3.8-25.6,2-32.4c-5.5,4-10.4,12.6-10.3,24.4c0,0.1-0.1,0.2-0.2,0.2c-0.1,0-0.2,0-0.3-0.2
					c-4.1-10.3-1.9-29.2,9.3-39.9c-2.9-0.4-5.9-0.3-9.1,0.7c-0.1,0-0.2,0-0.3-0.1c-0.1-0.1,0-0.2,0.1-0.3c4.1-3.5,9.8-4.5,15.3-4.5
					c-4.7,5.5-3.1,16.6,4.4,16.6c5.3,0,7.8-8.3,3.6-12.8c-0.1-0.1-0.1-0.2,0-0.3c0.1-0.1,0.2-0.1,0.3-0.1c4.8,1.7,9.9,5.8,9.9,11
					c0,5-4.8,9.4-11.8,9.1c8.8,2.5,18.1-0.3,22.9-6.3c0.1-0.1,0.2-0.1,0.3-0.1c0.1,0.1,0.2,0.2,0.1,0.3c-2.8,10.7-12,15.2-23.4,13.7
					c9.3,3.8,23.2,0.5,29.4-7.3c0.1-0.1,0.2-0.1,0.3-0.1c0.1,0.1,0.2,0.2,0.1,0.3C220.1-210.9,216.6-205.9,210.8-204z"/>
				<path class="st2" d="M237.2-184.7c0-0.1-0.1-0.2-0.2-0.2c-12.9-0.1-24.8-3.3-34-11.5c8,5.6,22.9,7.5,31.5,3.6
					c0.1-0.1,0.2-0.2,0.1-0.3c0-0.1-0.1-0.2-0.3-0.2c-10.7,0.3-19.3-3-26-9c6.9-0.4,12.6-4.7,12.6-9.8c0-0.1-0.1-0.2-0.2-0.2
					c-0.1,0-0.2,0-0.3,0.1c-1.1,2.5-4.7,3.8-8.6,2.9c-4.2-1-7-4.2-6.3-7.2c0.5-2,2.4-3.4,5-3.8c0.1,0,0.2-0.1,0.2-0.3
					c0-0.1-0.1-0.2-0.2-0.2c-1.1-0.1-2.2-0.1-3.3,0c-6.5,0.6-11.5,4.6-11.9,9.2c-4.7-0.5-8.9-3.2-10.4-6.8c0-0.1-0.2-0.2-0.3-0.2
					s-0.2,0.1-0.2,0.2c-0.4,4.8,1.3,7.8,5,10.9c-5.4-2.1-11.4-2.2-17.3,0.5c-0.1,0.1-0.2,0.2-0.1,0.3c0,0.1,0.1,0.2,0.2,0.2
					c4.9,0.2,8.4,1.8,11.7,5.1c-18.3-5.1-33.1,6.2-28,23.1c0,0.1,0.1,0.2,0.3,0.2s0.2-0.1,0.2-0.2c0.9-9.7,7.7-16.1,17.9-17.1
					c-5.4,2.1-11,7-11.6,15.5c0,0.1,0.1,0.2,0.2,0.3c0.1,0,0.2,0,0.3-0.1c2.8-6.2,8.3-9.3,14.2-9.8c-6.3,2.6-10.4,8.6-11.6,16.4
					c0,0.1,0.1,0.2,0.2,0.3c0.1,0,0.2,0,0.3-0.1c3.9-7.6,12.2-12.8,22.4-8.8c10.6,4.1,15.3,16.4,16.3,25c0,0.1,0.1,0.2,0.2,0.2
					c0.1,0,0.2-0.1,0.3-0.2c3.7-15.7-3.6-31.9-16.6-38.8c7.1,2,13.4,6.3,17,13.4c8.3,1,14,3.9,16.9,9.2c0.1,0.1,0.2,0.2,0.3,0.1
					c0.1,0,0.2-0.1,0.2-0.3c-0.2-2.1-0.9-6.3-4.1-8.3c7,0,12.5-0.9,17.8-3C237.2-184.5,237.2-184.6,237.2-184.7z M207.7-131.2
					c0.1-0.1,0.2-0.1,0.3,0c0.1,0.1,0.1,0.2,0,0.3c-1.6,2.8-0.1,6.8,3.1,6.8c5.7,0,8.5-10.8,7.6-20.6c-2.2,5.8-4,8.1-7.3,10.8
					c-0.1,0.1-0.2,0.1-0.3,0c-0.1-0.1-0.1-0.2-0.1-0.3c4.9-9.1,5.9-16.1,5.9-24.1c-1.5,6-3.2,9.3-8.1,14.4c-0.1,0.1-0.2,0.1-0.3,0
					c-0.1-0.1-0.1-0.2-0.1-0.3c5.3-11.6,4.9-24.4,0.9-34.3c0-0.1,0-0.2,0.1-0.3c0.1-0.1,0.2-0.1,0.3,0c5.2,2.6,8.3,4.2,12.8,10.4
					c-1.4,7.4-0.2,11,3.2,17.2c-3.9-9.9-1.8-23.9,8.2-29.6c0.1-0.1,0.2,0,0.3,0.1c0.1,0.1,0.1,0.2,0,0.3c-3.8,4-6.5,10.6-4.2,17.9
					c-1.5-10.4,7.6-19.1,17.8-19.1c9.6,0,16.2,7.5,15.6,14.9c-0.5,7.4-5.4,11-9.7,12.5c-0.1,0-0.2,0-0.3-0.1c-0.1-0.1-0.1-0.2,0-0.3
					c5.6-5.7,6.4-16.5-3.6-19.8c5.9,5.1,3.7,16.8-5.7,17.7c-0.1,0-0.2-0.1-0.3-0.2c0-0.1,0-0.2,0.1-0.3c2-1.3,3.7-3.8,3.7-6.6
					c0-4.7-3.4-6.5-5.7-6.5c-3.4,0-6.3,3.3-6.3,8.2c0,5.8,5.3,10.7,12,11.4c6.6,0.7,12.8-2.2,15.8-6.5c0.1-0.1,0.2-0.1,0.3-0.1
					c0.1,0.1,0.2,0.2,0.1,0.3c-3,11.7-16.8,16.9-26.9,9.5c6.6,7.5,17,7.6,25.7-0.1c0.1-0.1,0.2-0.1,0.3,0c0.1,0.1,0.1,0.2,0.1,0.3
					c-2.7,5.4-9.3,11.8-18.6,10.9c-8.6-0.9-13.5-9-14.5-15.7c-0.6,8.5,1.4,14.5,8.8,20.1c0.1,0.1,0.1,0.2,0.1,0.3
					c-0.1,0.1-0.2,0.2-0.3,0.1c-6.8-2-12.2-5.4-15-12.5c0,6.2,2.1,12.4,7.5,16.5c0.1,0.1,0.1,0.2,0.1,0.3c-0.1,0.1-0.2,0.2-0.3,0.1
					c-3.5-1-6.2-2.5-8.1-5.2c-1.3,11.1-6.5,17.7-12.5,17.7c-4.1,0-7.2-3-7.2-7.9C202.9-125,204.4-129,207.7-131.2z M108.5-222.8
					c3.2-3.9,9.5-5.4,16.4-4c-0.5-4.3,0.3-8.8,1.6-11.5c0.1-0.1,0.2-0.2,0.3-0.1c0.1,0.1,0.2,0.1,0.2,0.3
					c-0.4,8.8,4.6,15.8,13.4,18.9c-6.9-4.8-8.9-14.2-5.6-19.1c0.1-0.1,0.2-0.1,0.3-0.1s0.2,0.2,0.2,0.3c-0.4,2.1,0.6,4.7,2.7,6.7
					c2.9,2.8,6.8,3.5,8.8,1.4c2-2,1.2-5.9-1.7-8.8c-1.1-1-2.3-1.8-3.4-2.2c-0.1,0-0.2-0.2-0.2-0.3c0-0.1,0.1-0.2,0.2-0.2
					c6.4-0.6,10.8,3.3,13.5,7.9c2.8,4.7,7.6,8.4,13.2,7.7c0.1,0,0.2,0.1,0.3,0.2c0,0.1,0,0.2-0.1,0.3c-2.8,1.7-5.9,2.4-9.9,1.1
					c5.8,4.9,14,7.7,21.8,5.2c0.1,0,0.2,0,0.3,0.1c0.1,0.1,0.1,0.2,0,0.3c-5.9,6.6-17.7,6.7-25.1,1.4c3,4.3,7.1,7.5,14.3,8.5
					c0.1,0,0.2,0.1,0.2,0.2c0,0.1-0.1,0.2-0.2,0.3c-8.3,3.1-16.6,0-23.4-8.2c3,6.4,7.9,11.5,14.8,14c0.1,0,0.2,0.2,0.2,0.3
					c0,0.1-0.1,0.2-0.2,0.2c-3.9,0.1-7.5-0.9-12.3-3.6c3.5,5.7,2.7,15.6-2.4,22.3c-0.1,0.1-0.2,0.1-0.3,0.1s-0.2-0.2-0.1-0.3
					c1.2-7.2-1.3-15.3-5.6-19.6c2.2,7.6,0,14.6-5.9,19.6c-0.1,0.1-0.2,0.1-0.3,0c-0.1,0-0.1-0.1-0.2-0.2c-1.2-9.4-11.8-19-20.6-19.8
					c-0.1,0-0.2-0.1-0.2-0.2s0.1-0.2,0.2-0.3c4.3-1,8.7-0.5,12.4,1c-2.7-2.9-5.9-5.1-9.6-6.2c-0.1,0-0.2-0.2-0.2-0.3
					c0-0.1,0.1-0.2,0.2-0.2c4.5-0.3,8.9,1,12.7,3.5c-4.4-6.6-11-11.5-19.4-13.5c-0.1,0-0.2-0.1-0.2-0.3c0-0.1,0.1-0.2,0.2-0.2
					c11.9-1.3,21.7,3.3,28.2,11.9c-1.6-4.9-6.4-9.8-12.9-12.6c-5.8-2.5-11.8-2.9-16.4-1.5c-0.1,0-0.2,0-0.3-0.1
					C108.4-222.6,108.4-222.8,108.5-222.8z M161.4-147.3c-4.8-10.5-4.5-18.7-0.6-29.1c0-0.1,0.2-0.2,0.3-0.2s0.2,0.1,0.2,0.3
					c-0.6,12.6,2.8,21.7,10.3,27.8c-8.2-9.9-4.4-29.6,8.8-29.6c9.6,0,17.5,8,19.5,17.5c0,0.1,0,0.2-0.2,0.3c-0.1,0-0.2,0-0.3-0.1
					c-2.8-4.8-7.4-7.9-12.5-7.9c-8.1,0-10.5,6.5-10.5,11c0,6.2,4.9,11.3,8.7,11.3c3.4,0,5-2.8,5-4.9c0-3.9-3-7.2-6.4-8.2
					c-0.1,0-0.2-0.2-0.2-0.3s0.1-0.2,0.2-0.2c4.1,0,7.6,1.9,9.6,5.6c0.3-2.9,0.3-4.7-0.6-7.7c0-0.1,0-0.2,0.1-0.3
					c0.1-0.1,0.2,0,0.3,0.1c7.4,9.4,3.8,25.6-2,32.4c5.5-4,10.4-12.6,10.3-24.4c0-0.1,0.1-0.2,0.2-0.2c0.1,0,0.2,0,0.3,0.2
					c4.1,10.3,1.9,29.2-9.3,39.9c2.9,0.4,5.9,0.3,9.1-0.7c0.1,0,0.2,0,0.3,0.1s0,0.2-0.1,0.3c-4.1,3.5-9.8,4.5-15.3,4.5
					c4.7-5.5,3.1-16.6-4.4-16.6c-5.3,0-7.8,8.3-3.6,12.8c0.1,0.1,0.1,0.2,0,0.3c-0.1,0.1-0.2,0.1-0.3,0.1c-4.8-1.7-9.9-5.8-9.9-11
					c0-5,4.8-9.4,11.8-9.1c-8.8-2.5-18.1,0.3-22.9,6.3c-0.1,0.1-0.2,0.1-0.3,0.1c-0.1-0.1-0.2-0.2-0.1-0.3
					c2.8-10.7,12-15.2,23.4-13.7c-9.3-3.8-23.2-0.5-29.4,7.3c-0.1,0.1-0.2,0.1-0.3,0.1s-0.2-0.2-0.1-0.3
					C152.2-140.4,155.7-145.3,161.4-147.3z"/>
			</g>
			<g>
				<path class="st1" d="M26.7-166.6c0,0.1,0.1,0.2,0.2,0.2c12.9,0.1,24.8,3.3,34,11.5c-8-5.6-22.9-7.5-31.5-3.6
					c-0.1,0-0.2,0.2-0.1,0.3c0,0.1,0.1,0.2,0.3,0.2c10.7-0.3,19.3,3,26,9c-6.9,0.4-12.6,4.7-12.6,9.8c0,0.1,0.1,0.2,0.2,0.2
					c0.1,0,0.2,0,0.3-0.1c1.1-2.5,4.7-3.8,8.6-2.9c4.2,1,7,4.2,6.3,7.2c-0.5,2-2.4,3.4-5,3.8c-0.1,0-0.2,0.1-0.2,0.3
					c0,0.1,0.1,0.2,0.2,0.2c1.1,0.1,2.2,0.1,3.3,0c6.5-0.6,11.5-4.6,11.9-9.2c4.7,0.5,8.9,3.2,10.4,6.8c0,0.1,0.2,0.2,0.3,0.2
					c0.1,0,0.2-0.1,0.2-0.2c0.4-4.8-1.3-7.8-5-10.9c5.4,2.1,11.4,2.2,17.3-0.5c0.1,0,0.2-0.2,0.1-0.3c0-0.1-0.1-0.2-0.2-0.2
					c-4.9-0.2-8.4-1.8-11.7-5.1c18.3,5.1,33.1-6.2,28-23.1c0-0.1-0.1-0.2-0.3-0.2c-0.1,0-0.2,0.1-0.2,0.2
					c-0.9,9.7-7.7,16.1-17.9,17.1c5.4-2.1,11-7,11.6-15.5c0-0.1-0.1-0.2-0.2-0.3c-0.1,0-0.2,0-0.3,0.1c-2.8,6.2-8.3,9.3-14.2,9.8
					c6.3-2.6,10.4-8.6,11.6-16.4c0-0.1-0.1-0.2-0.2-0.3c-0.1,0-0.2,0-0.3,0.1c-3.9,7.6-12.2,12.8-22.4,8.8
					c-10.7-3.9-15.4-16.2-16.4-24.9c0-0.1-0.1-0.2-0.2-0.2c-0.1,0-0.2,0.1-0.3,0.2c-3.7,15.7,3.6,31.9,16.6,38.8
					c-7.1-2-13.4-6.3-17-13.4c-8.3-1-14-3.9-16.9-9.2c-0.1-0.1-0.2-0.2-0.3-0.1c-0.1,0-0.2,0.1-0.2,0.3c0.2,2.1,0.9,6.3,4.1,8.3
					c-7,0-12.5,0.9-17.8,3C26.7-166.8,26.7-166.7,26.7-166.6z M56.2-220c-0.1,0.1-0.2,0.1-0.3,0c-0.1-0.1-0.1-0.2,0-0.3
					c1.6-2.8,0.1-6.8-3.1-6.8c-5.7,0-8.5,10.8-7.6,20.6c2.2-5.8,4-8.1,7.3-10.8c0.1-0.1,0.2-0.1,0.3,0s0.1,0.2,0.1,0.3
					c-4.8,9-5.9,16-5.9,24c1.5-6,3.2-9.3,8.1-14.4c0.1-0.1,0.2-0.1,0.3,0c0.1,0.1,0.1,0.2,0.1,0.3c-5.3,11.6-4.9,24.4-0.9,34.3
					c0,0.1,0,0.2-0.1,0.3c-0.1,0.1-0.2,0.1-0.3,0c-5.2-2.6-8.3-4.2-12.8-10.4c1.4-7.4,0.2-11-3.2-17.2c3.9,9.9,1.8,23.9-8.2,29.6
					c-0.1,0.1-0.2,0-0.3-0.1c-0.1-0.1-0.1-0.2,0-0.3c3.8-4,6.5-10.6,4.2-17.9c1.5,10.4-7.6,19.1-17.8,19.1
					c-9.6,0-16.2-7.5-15.6-14.9c0.5-7.4,5.4-11,9.7-12.5c0.1,0,0.2,0,0.3,0.1c0.1,0.1,0,0.2,0,0.3c-5.6,5.7-6.4,16.5,3.6,19.8
					c-5.9-5.1-3.7-16.8,5.7-17.7c0.1,0,0.2,0.1,0.3,0.2c0,0.1,0,0.2-0.1,0.3c-2,1.3-3.7,3.8-3.7,6.6c0,4.7,3.4,6.5,5.7,6.5
					c3.4,0,6.3-3.3,6.3-8.2c0-5.8-5.3-10.7-12-11.4c-6.7-0.9-12.9,2-15.8,6.3c-0.1,0.1-0.2,0.1-0.3,0.1c-0.2,0-0.2-0.2-0.2-0.3
					c3-11.7,16.8-16.9,26.9-9.5c-6.6-7.5-17-7.6-25.7,0.1c-0.1,0.1-0.2,0.1-0.3,0c-0.1-0.1-0.1-0.2-0.1-0.3
					c2.7-5.4,9.3-11.8,18.6-10.9c8.6,0.9,13.5,9,14.5,15.7c0.6-8.5-1.4-14.5-8.8-20.1c-0.1-0.1-0.1-0.2-0.1-0.3
					c0.1-0.1,0.2-0.2,0.3-0.1c6.8,2,12.2,5.4,15,12.5c0-6.2-2.1-12.4-7.5-16.5c-0.1-0.1-0.1-0.2-0.1-0.3c0.1-0.1,0.2-0.2,0.3-0.1
					c3.5,1,6.2,2.5,8.1,5.2c1.3-11.1,6.5-17.7,12.5-17.7c4.1,0,7.2,3,7.2,7.9C61-226.2,59.5-222.2,56.2-220z M155.4-128.4
					c-3.2,3.9-9.5,5.4-16.4,4c0.5,4.3-0.3,8.8-1.6,11.5c-0.1,0.1-0.2,0.2-0.3,0.1c-0.1,0-0.2-0.1-0.2-0.3
					c0.4-8.8-4.6-15.8-13.4-18.9c6.9,4.8,8.9,14.2,5.6,19.1c-0.1,0.1-0.2,0.1-0.3,0.1s-0.2-0.2-0.2-0.3c0.4-2.1-0.6-4.7-2.7-6.7
					c-2.9-2.8-6.8-3.5-8.8-1.4c-2,2-1.2,5.9,1.7,8.8c1.1,1,2.3,1.8,3.4,2.2c0.1,0,0.2,0.2,0.2,0.3s-0.1,0.2-0.2,0.2
					c-6.4,0.6-10.8-3.3-13.5-7.9c-2.8-4.7-7.6-8.4-13.2-7.7c-0.1,0-0.2-0.1-0.3-0.2c0-0.1,0-0.2,0.1-0.3c2.8-1.7,5.9-2.4,9.9-1.1
					c-5.8-4.9-14-7.7-21.8-5.2c-0.1,0-0.2,0-0.3-0.1c-0.1-0.1-0.1-0.2,0-0.3c5.9-6.6,17.7-6.7,25.1-1.4c-3-4.3-7.1-7.5-14.3-8.5
					c-0.1,0-0.2-0.1-0.2-0.2c0-0.1,0.1-0.2,0.2-0.3c8.3-3.1,16.6,0,23.4,8.2c-3-6.4-7.9-11.5-14.8-14c-0.1,0-0.2-0.2-0.2-0.3
					s0.1-0.2,0.2-0.2c3.9-0.1,7.5,0.9,12.3,3.6c-3.5-5.7-2.7-15.6,2.4-22.3c0.1-0.1,0.2-0.1,0.3-0.1c0.1,0,0.2,0.2,0.1,0.3
					c-1.2,7.2,1.3,15.3,5.6,19.6c-2.2-7.6,0-14.6,5.9-19.6c0.1-0.1,0.2-0.1,0.3,0c0.1,0,0.1,0.1,0.2,0.2c1.2,9.4,11.8,19,20.6,19.8
					c0.1,0,0.2,0.1,0.2,0.2c0,0.1-0.1,0.2-0.2,0.3c-4.3,1-8.7,0.5-12.4-1c2.7,2.9,5.9,5.1,9.6,6.2c0.1,0,0.2,0.2,0.2,0.3
					c0,0.1-0.1,0.2-0.2,0.2c-4.5,0.3-8.9-1-12.7-3.5c4.4,6.6,11,11.5,19.4,13.5c0.1,0,0.2,0.1,0.2,0.3c0,0.1-0.1,0.2-0.2,0.2
					c-11.9,1.3-21.7-3.3-28.2-11.9c1.6,4.9,6.4,9.8,12.9,12.6c5.8,2.5,11.8,2.9,16.4,1.5c0.1,0,0.2,0,0.3,0.1
					C155.5-128.6,155.5-128.5,155.4-128.4z M102.5-204c4.8,10.5,4.5,18.7,0.6,29.1c0,0.1-0.2,0.2-0.3,0.2c-0.1,0-0.2-0.1-0.2-0.3
					c0.6-12.6-2.8-21.7-10.3-27.8c8.2,9.9,4.4,29.6-8.8,29.6c-9.6,0-17.5-8-19.5-17.5c0-0.1,0-0.2,0.2-0.3c0.1,0,0.2,0,0.3,0.1
					c2.8,4.8,7.4,7.9,12.5,7.9c8.1,0,10.5-6.5,10.5-11c0-6.2-4.9-11.3-8.7-11.3c-3.4,0-5,2.8-5,4.9c0,3.9,3,7.2,6.4,8.2
					c0.1,0,0.2,0.2,0.2,0.3c0,0.1-0.1,0.2-0.2,0.2c-4.1,0-7.6-1.9-9.6-5.6c-0.3,2.9-0.3,4.7,0.6,7.7c0,0.1,0,0.2-0.1,0.3
					c-0.1,0.1-0.2,0-0.3-0.1c-7.4-9.4-3.8-25.6,2-32.4c-5.5,4-10.4,12.6-10.3,24.4c0,0.1-0.1,0.2-0.2,0.2c-0.1,0-0.2,0-0.3-0.2
					c-4.1-10.3-1.9-29.2,9.3-39.9c-2.9-0.4-5.9-0.3-9.1,0.7c-0.1,0-0.2,0-0.3-0.1c-0.1-0.1,0-0.2,0.1-0.3c3.8-3.4,9.5-4.5,15-4.5
					c-4.7,5.5-3.1,16.6,4.4,16.6c5.3,0,7.8-8.3,3.6-12.8c-0.1-0.1-0.1-0.2,0-0.3c0.1-0.1,0.2-0.1,0.3-0.1c4.8,1.7,9.9,5.8,9.9,11
					c0,5-4.8,9.4-11.8,9.1c8.8,2.5,18.1-0.3,22.9-6.3c0.1-0.1,0.2-0.1,0.3-0.1c0.1,0.1,0.2,0.2,0.1,0.3c-2.8,10.7-12,15.2-23.4,13.7
					c9.3,3.8,23.2,0.5,29.4-7.3c0.1-0.1,0.2-0.1,0.3-0.1c0.1,0.1,0.2,0.2,0.1,0.3C111.8-210.9,108.3-205.9,102.5-204z"/>
				<path class="st2" d="M128.9-184.7c0-0.1-0.1-0.2-0.2-0.2c-12.9-0.1-24.8-3.3-34-11.5c8,5.6,22.9,7.5,31.5,3.6
					c0.1-0.1,0.2-0.2,0.1-0.3c0-0.1-0.1-0.2-0.3-0.2c-10.7,0.3-19.3-3-26-9c6.9-0.4,12.6-4.7,12.6-9.8c0-0.1-0.1-0.2-0.2-0.2
					s-0.2,0-0.3,0.1c-1.1,2.5-4.7,3.8-8.6,2.9c-4.2-1-7-4.2-6.3-7.2c0.5-2,2.4-3.4,5-3.8c0.1,0,0.2-0.1,0.2-0.3
					c0-0.1-0.1-0.2-0.2-0.2c-1.1-0.1-2.2-0.1-3.3,0c-6.5,0.6-11.5,4.6-11.9,9.2c-4.7-0.5-8.9-3.2-10.4-6.8c0-0.1-0.2-0.2-0.3-0.2
					c-0.1,0-0.2,0.1-0.2,0.2c-0.4,4.8,1.3,7.8,5,10.9c-5.4-2.1-11.4-2.2-17.3,0.5c-0.1,0.1-0.2,0.2-0.1,0.3c0,0.1,0.1,0.2,0.2,0.2
					c4.9,0.2,8.4,1.8,11.7,5.1c-18.3-5.1-33.1,6.2-28,23.1c0,0.1,0.1,0.2,0.3,0.2c0.1,0,0.2-0.1,0.2-0.2c1-9.8,7.8-16.2,17.9-17.1
					c-5.4,2.1-11,7-11.6,15.5c0,0.1,0.1,0.2,0.2,0.3c0.1,0,0.2,0,0.3-0.1c2.8-6.2,8.3-9.3,14.2-9.8c-6.3,2.6-10.4,8.6-11.6,16.4
					c0,0.1,0.1,0.2,0.2,0.3c0.1,0,0.2,0,0.3-0.1c3.9-7.6,12.2-12.8,22.4-8.8c10.6,4.1,15.3,16.4,16.3,25c0,0.1,0.1,0.2,0.2,0.2
					s0.2-0.1,0.3-0.2c3.7-15.7-3.6-31.9-16.6-38.8c7.1,2,13.4,6.3,17,13.4c8.3,1,14,3.9,16.9,9.2c0.1,0.1,0.2,0.2,0.3,0.1
					c0.1,0,0.2-0.1,0.2-0.3c-0.2-2.1-0.9-6.3-4.1-8.3c7,0,12.5-0.9,17.8-3C128.8-184.5,128.9-184.6,128.9-184.7z M99.4-131.2
					c0.1-0.1,0.2-0.1,0.3,0c0.1,0.1,0.1,0.2,0,0.3c-1.6,2.8-0.1,6.8,3.1,6.8c5.7,0,8.5-10.8,7.6-20.6c-2.2,5.8-4,8.1-7.3,10.8
					c-0.1,0.1-0.2,0.1-0.3,0c-0.1-0.1-0.1-0.2-0.1-0.3c4.9-9.1,5.9-16.1,5.9-24.1c-1.5,6-3.2,9.3-8.1,14.4c-0.1,0.1-0.2,0.1-0.3,0
					c-0.1-0.1-0.1-0.2-0.1-0.3c5.3-11.6,4.9-24.4,0.9-34.3c0-0.1,0-0.2,0.1-0.3c0.1-0.1,0.2-0.1,0.3,0c5.2,2.6,8.3,4.2,12.8,10.4
					c-1.4,7.4-0.2,11,3.2,17.2c-3.9-9.9-1.8-23.9,8.2-29.6c0.1-0.1,0.2,0,0.3,0.1c0.1,0.1,0.1,0.2,0,0.3c-3.8,4-6.5,10.6-4.2,17.9
					c-1.5-10.4,7.6-19.1,17.8-19.1c9.6,0,16.2,7.5,15.6,14.9c-0.5,7.4-5.4,11-9.7,12.5c-0.1,0-0.2,0-0.3-0.1c-0.1-0.1-0.1-0.2,0-0.3
					c5.6-5.7,6.4-16.5-3.6-19.8c5.9,5.1,3.7,16.8-5.7,17.7c-0.1,0-0.2-0.1-0.3-0.2c0-0.1,0-0.2,0.1-0.3c2-1.3,3.7-3.8,3.7-6.6
					c0-4.7-3.4-6.5-5.7-6.5c-3.4,0-6.3,3.3-6.3,8.2c0,5.8,5.3,10.7,12,11.4c6.6,0.7,12.8-2.2,15.8-6.5c0.1-0.1,0.2-0.1,0.3-0.1
					c0.1,0.1,0.2,0.2,0.1,0.3c-3,11.7-16.8,16.9-26.9,9.5c6.6,7.5,17,7.6,25.7-0.1c0.1-0.1,0.2-0.1,0.3,0c0.1,0.1,0.1,0.2,0.1,0.3
					c-2.7,5.4-9.3,11.8-18.6,10.9c-8.6-0.9-13.5-9-14.5-15.7c-0.6,8.5,1.4,14.5,8.8,20.1c0.1,0.1,0.1,0.2,0.1,0.3
					c-0.1,0.1-0.2,0.2-0.3,0.1c-6.8-2-12.2-5.4-15-12.5c0,6.2,2.1,12.4,7.5,16.5c0.1,0.1,0.1,0.2,0.1,0.3c-0.1,0.1-0.2,0.2-0.3,0.1
					c-3.5-1-6.2-2.5-8.1-5.2c-1.3,11.1-6.5,17.7-12.5,17.7c-4.1,0-7.2-3-7.2-7.9C94.6-125,96.1-129,99.4-131.2z M0.2-222.8
					c3.2-3.9,9.5-5.4,16.4-4c-0.5-4.3,0.3-8.8,1.6-11.5c0.1-0.1,0.2-0.2,0.3-0.2s0.2,0.1,0.2,0.3c-0.4,8.8,4.6,15.8,13.4,18.9
					c-6.9-4.7-8.9-14.2-5.6-19c0.1-0.1,0.2-0.1,0.3-0.1c0.1,0,0.2,0.2,0.2,0.3c-0.4,2.1,0.6,4.7,2.7,6.7c2.9,2.8,6.8,3.5,8.8,1.4
					c2-2,1.2-5.9-1.7-8.8c-1.1-1-2.3-1.8-3.4-2.2c-0.1,0-0.2-0.2-0.2-0.3c0-0.1,0.1-0.2,0.2-0.2c6.4-0.6,10.8,3.3,13.5,7.9
					c2.8,4.7,7.6,8.4,13.2,7.7c0.1,0,0.2,0.1,0.3,0.2c0,0.1,0,0.2-0.1,0.3c-2.8,1.7-5.9,2.4-9.9,1.1c5.8,4.9,14,7.7,21.8,5.2
					c0.1,0,0.2,0,0.3,0.1c0.1,0.1,0.1,0.2,0,0.3c-5.9,6.6-17.7,6.7-25.1,1.4c3,4.3,7.1,7.5,14.3,8.5c0.1,0,0.2,0.1,0.2,0.2
					c0,0.1-0.1,0.2-0.2,0.3c-8.3,3.1-16.6,0-23.4-8.2c3,6.4,7.9,11.5,14.8,14c0.1,0,0.2,0.2,0.2,0.3c0,0.1-0.1,0.2-0.2,0.2
					c-3.9,0.1-7.5-0.9-12.3-3.6c3.5,5.7,2.7,15.6-2.4,22.3c-0.1,0.1-0.2,0.1-0.3,0.1s-0.2-0.2-0.1-0.3c1.2-7.2-1.3-15.3-5.6-19.6
					c2.2,7.6,0,14.6-5.9,19.6c-0.1,0.1-0.2,0.1-0.3,0c-0.1,0-0.1-0.1-0.2-0.2c-1.2-9.4-11.8-19-20.6-19.8c-0.1,0-0.2-0.1-0.2-0.2
					s0.1-0.2,0.2-0.3c4.3-1,8.7-0.5,12.4,1c-2.7-2.9-5.9-5.1-9.6-6.2c-0.1-0.1-0.2-0.2-0.2-0.3c0-0.1,0.1-0.2,0.2-0.2
					c4.5-0.3,8.9,1,12.7,3.5c-4.4-6.6-11-11.5-19.4-13.5c-0.1,0-0.2-0.1-0.2-0.3c0-0.1,0.1-0.2,0.2-0.2c11.9-1.3,21.7,3.3,28.2,11.9
					c-1.6-4.9-6.4-9.8-12.9-12.6c-5.8-2.6-11.8-3-16.4-1.5c-0.1,0-0.2,0-0.3-0.1C0.1-222.6,0.1-222.8,0.2-222.8z M53.1-147.3
					c-4.8-10.5-4.5-18.7-0.6-29.1c0-0.1,0.2-0.2,0.3-0.2s0.2,0.1,0.2,0.3c-0.6,12.6,2.8,21.7,10.3,27.8c-8.2-9.9-4.4-29.6,8.8-29.6
					c9.6,0,17.5,8,19.5,17.5c0,0.1,0,0.2-0.2,0.3c-0.1,0-0.2,0-0.3-0.1c-2.8-4.8-7.4-7.9-12.5-7.9c-8.1,0-10.5,6.5-10.5,11
					c0,6.2,4.9,11.3,8.7,11.3c3.4,0,5-2.8,5-4.9c0-3.9-3-7.2-6.4-8.2c-0.1,0-0.2-0.2-0.2-0.3s0.1-0.2,0.2-0.2c4.1,0,7.6,1.9,9.6,5.6
					c0.3-2.9,0.3-4.7-0.6-7.7c0-0.1,0-0.2,0.1-0.3c0.1-0.1,0.2,0,0.3,0.1c7.4,9.4,3.8,25.6-2,32.4c5.5-4,10.4-12.6,10.3-24.4
					c0-0.1,0.1-0.2,0.2-0.2s0.2,0,0.3,0.2c4.1,10.3,1.9,29.2-9.3,39.9c2.9,0.4,5.9,0.3,9.1-0.7c0.1,0,0.2,0,0.3,0.1
					c0.1,0.1,0,0.2-0.1,0.3c-4.1,3.5-9.8,4.5-15.3,4.5c4.7-5.5,3.1-16.6-4.4-16.6c-5.3,0-7.8,8.3-3.6,12.8c0.1,0.1,0.1,0.2,0,0.3
					c-0.1,0.1-0.2,0.1-0.3,0.1c-4.8-1.7-9.9-5.8-9.9-11c0-5,4.8-9.4,11.8-9.1c-8.8-2.5-18.1,0.3-22.9,6.3c-0.1,0.1-0.2,0.1-0.3,0.1
					c-0.1-0.1-0.2-0.2-0.1-0.3c2.8-10.7,12-15.2,23.4-13.7c-9.3-3.8-23.2-0.5-29.4,7.3c-0.1,0.1-0.2,0.1-0.3,0.1s-0.2-0.2-0.1-0.3
					C43.8-140.4,47.3-145.3,53.1-147.3z"/>
			</g>
			<g>
				<path class="st1" d="M135-56.9c0,0.1,0.1,0.2,0.2,0.2c12.9,0.1,24.8,3.3,34,11.5c-8-5.6-22.9-7.5-31.5-3.6
					c-0.1,0-0.2,0.2-0.1,0.3c0,0.1,0.1,0.2,0.3,0.2c10.7-0.3,19.3,3,26,9c-6.9,0.4-12.6,4.7-12.6,9.8c0,0.1,0.1,0.2,0.2,0.2
					c0.1,0,0.2,0,0.3-0.1c1.1-2.5,4.7-3.8,8.6-2.9c4.2,1,7,4.2,6.3,7.2c-0.5,2-2.4,3.4-5,3.8c-0.1,0-0.2,0.1-0.2,0.3
					c0,0.1,0.1,0.2,0.2,0.2c1.1,0.1,2.2,0.1,3.3,0c6.5-0.6,11.5-4.6,11.9-9.2c4.7,0.5,8.9,3.2,10.4,6.8c0,0.1,0.2,0.2,0.3,0.2
					s0.2-0.1,0.2-0.2c0.4-4.8-1.3-7.8-5-10.9c5.4,2.1,11.4,2.2,17.3-0.5c0.1,0,0.2-0.2,0.1-0.3c0-0.1-0.1-0.2-0.2-0.2
					c-4.9-0.2-8.4-1.8-11.7-5.1c18.3,5.1,33.1-6.2,28-23.1c0-0.1-0.1-0.2-0.3-0.2c-0.1,0-0.2,0.1-0.2,0.2
					c-0.9,9.7-7.7,16.1-17.9,17.1c5.4-2.1,11-7,11.6-15.5c0-0.1-0.1-0.2-0.2-0.3c-0.1,0-0.2,0-0.3,0.1c-2.8,6.2-8.3,9.3-14.2,9.8
					c6.3-2.6,10.4-8.6,11.6-16.4c0-0.1-0.1-0.2-0.2-0.3c-0.1,0-0.2,0-0.3,0.1c-3.9,7.6-12.2,12.8-22.4,8.8
					c-10.6-4.1-15.3-16.4-16.3-25c0-0.1-0.1-0.2-0.2-0.2c-0.1,0-0.2,0.1-0.3,0.2c-3.7,15.7,3.6,31.9,16.6,38.8
					c-7.1-2-13.4-6.3-17-13.4c-8.3-1-14-3.9-16.9-9.2c-0.1-0.1-0.2-0.2-0.3-0.1c-0.1,0-0.2,0.1-0.2,0.3c0.2,2.1,0.9,6.3,4.1,8.3
					c-7,0-12.5,0.9-17.8,3C135.1-57.2,135-57,135-56.9z M164.5-110.4c-0.1,0.1-0.2,0.1-0.3,0s-0.1-0.2,0-0.3
					c1.6-2.8,0.1-6.8-3.1-6.8c-5.7,0-8.5,10.8-7.6,20.6c2.2-5.8,4-8.1,7.3-10.8c0.1-0.1,0.2-0.1,0.3,0s0.1,0.2,0.1,0.3
					c-4.9,9.1-5.9,16.1-5.9,24.1c1.5-6,3.2-9.3,8.1-14.4c0.1-0.1,0.2-0.1,0.3,0s0.1,0.2,0.1,0.3c-5.3,11.6-4.9,24.4-0.9,34.3
					c0,0.1,0,0.2-0.1,0.3s-0.2,0.1-0.3,0c-5.2-2.6-8.3-4.2-12.8-10.4c1.4-7.4,0.2-11-3.2-17.2c3.9,9.9,1.8,23.9-8.2,29.6
					c-0.1,0.1-0.2,0-0.3-0.1s-0.1-0.2,0-0.3c3.8-4,6.5-10.6,4.2-17.9c1.5,10.4-7.6,19.1-17.8,19.1c-9.6,0-16.2-7.5-15.6-14.9
					c0.5-7.4,5.4-11,9.7-12.5c0.1,0,0.2,0,0.3,0.1c0.1,0.1,0,0.2,0,0.3c-5.6,5.7-6.4,16.5,3.6,19.8c-5.9-5.1-3.7-16.8,5.7-17.7
					c0.1,0,0.2,0.1,0.3,0.2c0,0.1,0,0.2-0.1,0.3c-2,1.3-3.7,3.8-3.7,6.6c0,4.7,3.4,6.5,5.7,6.5c3.4,0,6.3-3.3,6.3-8.2
					c0-5.8-5.3-10.7-12-11.4c-6.6-0.7-12.8,2.2-15.8,6.5c-0.1,0.1-0.2,0.1-0.3,0.1c-0.1-0.1-0.2-0.2-0.1-0.3
					c3-11.7,16.8-16.9,26.9-9.5c-6.6-7.5-17-7.6-25.7,0.1c-0.1,0.1-0.2,0.1-0.3,0c-0.1-0.1-0.1-0.2-0.1-0.3
					c2.7-5.4,9.3-11.8,18.6-10.9c8.6,0.9,13.5,9,14.5,15.7c0.6-8.5-1.4-14.5-8.8-20.1c-0.1-0.1-0.1-0.2-0.1-0.3
					c0.1-0.1,0.2-0.2,0.3-0.1c6.8,2,12.2,5.4,15,12.5c0-6.2-2.1-12.4-7.5-16.5c-0.1-0.1-0.1-0.2-0.1-0.3s0.2-0.2,0.3-0.1
					c3.5,1,6.2,2.5,8.1,5.2c1.3-11.1,6.5-17.7,12.5-17.7c4.1,0,7.2,3,7.2,7.9C169.3-116.6,167.8-112.6,164.5-110.4z M263.7-18.8
					c-3.2,3.9-9.5,5.4-16.4,4c0.5,4.3-0.3,8.8-1.6,11.5c-0.1,0.1-0.2,0.2-0.3,0.1c-0.1,0-0.2-0.1-0.2-0.3
					c0.4-8.8-4.6-15.8-13.4-18.9c6.9,4.8,8.9,14.2,5.6,19.1c-0.1,0.1-0.2,0.1-0.3,0.1s-0.2-0.2-0.2-0.3c0.4-2.1-0.6-4.7-2.7-6.7
					c-2.9-2.8-6.8-3.5-8.8-1.4c-2,2-1.2,5.9,1.7,8.8c1.1,1,2.3,1.8,3.4,2.2c0.1,0,0.2,0.2,0.2,0.3s-0.1,0.2-0.2,0.2
					C224.1,0.5,219.7-3.4,217-8c-2.8-4.7-7.6-8.4-13.2-7.7c-0.1,0-0.2-0.1-0.3-0.2c0-0.1,0-0.2,0.1-0.3c2.8-1.7,5.9-2.4,9.9-1.1
					c-5.8-4.9-14-7.7-21.8-5.2c-0.1,0-0.2,0-0.3-0.1s-0.1-0.2,0-0.3c5.9-6.6,17.7-6.7,25.1-1.4c-3-4.3-7.1-7.5-14.3-8.5
					c-0.1,0-0.2-0.1-0.2-0.2c0-0.1,0.1-0.2,0.2-0.3c8.3-3.1,16.6,0,23.4,8.2c-3-6.4-7.9-11.5-14.8-14c-0.1,0-0.2-0.2-0.2-0.3
					s0.1-0.2,0.2-0.2c3.9-0.1,7.5,0.9,12.3,3.6c-3.5-5.7-2.7-15.6,2.4-22.3c0.1-0.1,0.2-0.1,0.3-0.1s0.2,0.2,0.1,0.3
					c-1.2,7.2,1.3,15.3,5.6,19.6c-2.2-7.6,0-14.6,5.9-19.6c0.1-0.1,0.2-0.1,0.3,0c0.1,0,0.1,0.1,0.2,0.2c1.2,9.4,11.8,19,20.6,19.8
					c0.1,0,0.2,0.1,0.2,0.2c0,0.1-0.1,0.2-0.2,0.3c-4.3,1-8.7,0.5-12.4-1c2.7,2.9,5.9,5.1,9.6,6.2c0.1,0,0.2,0.2,0.2,0.3
					c0,0.1-0.1,0.2-0.2,0.2c-4.5,0.3-8.9-1-12.7-3.5c4.4,6.6,11,11.5,19.4,13.5c0.1,0,0.2,0.1,0.2,0.3c0,0.1-0.1,0.2-0.2,0.2
					c-11.9,1.3-21.7-3.3-28.2-11.9c1.6,4.9,6.4,9.8,12.9,12.6c5.8,2.5,11.9,2.9,16.4,1.5c0.1,0,0.2,0,0.3,0.1
					C263.8-19,263.8-18.9,263.7-18.8z M210.8-94.3c4.8,10.5,4.5,18.7,0.6,29.1c0,0.1-0.2,0.2-0.3,0.2s-0.2-0.1-0.2-0.3
					c0.6-12.6-2.8-21.7-10.3-27.8c8.2,9.9,4.4,29.6-8.8,29.6c-9.6,0-17.5-8-19.5-17.5c0-0.1,0-0.2,0.2-0.3c0.1,0,0.2,0,0.3,0.1
					c2.8,4.8,7.4,7.9,12.5,7.9c8.1,0,10.5-6.5,10.5-11c0-6.2-4.9-11.3-8.7-11.3c-3.4,0-5,2.8-5,4.9c0,3.9,3,7.2,6.4,8.2
					c0.1,0,0.2,0.2,0.2,0.3s-0.1,0.2-0.2,0.2c-4.1,0-7.6-1.9-9.6-5.6c-0.3,2.9-0.3,4.7,0.6,7.7c0,0.1,0,0.2-0.1,0.3s-0.2,0-0.3-0.1
					c-7.4-9.4-3.8-25.6,2-32.4c-5.5,4-10.4,12.6-10.3,24.4c0,0.1-0.1,0.2-0.2,0.2c-0.1,0-0.2,0-0.3-0.2c-4.1-10.3-1.9-29.2,9.3-39.9
					c-2.9-0.4-5.9-0.3-9.1,0.7c-0.1,0-0.2,0-0.3-0.1s0-0.2,0.1-0.3c4.1-3.5,9.8-4.5,15.3-4.5c-4.7,5.5-3.1,16.6,4.4,16.6
					c5.3,0,7.8-8.3,3.6-12.8c-0.1-0.1-0.1-0.2,0-0.3c0.1-0.1,0.2-0.1,0.3-0.1c4.8,1.7,9.9,5.8,9.9,11c0,5-4.8,9.4-11.8,9.1
					c8.8,2.5,18.1-0.3,22.9-6.3c0.1-0.1,0.2-0.1,0.3-0.1c0.1,0.1,0.2,0.2,0.1,0.3c-2.8,10.7-12,15.2-23.4,13.7
					c9.3,3.8,23.2,0.5,29.4-7.3c0.1-0.1,0.2-0.1,0.3-0.1c0.1,0.1,0.2,0.2,0.1,0.3C220.1-101.2,216.6-96.3,210.8-94.3z"/>
				<path class="st2" d="M237.2-75c0-0.1-0.1-0.2-0.2-0.2c-12.9-0.1-24.8-3.3-34-11.5c8,5.6,22.9,7.5,31.5,3.6
					c0.1-0.1,0.2-0.2,0.1-0.3c0-0.1-0.1-0.2-0.3-0.2c-10.7,0.3-19.3-3-26-9c6.9-0.4,12.6-4.7,12.6-9.8c0-0.1-0.1-0.2-0.2-0.2
					c-0.1,0-0.2,0-0.3,0.1c-1.1,2.5-4.7,3.8-8.6,2.9c-4.2-1-7-4.2-6.3-7.2c0.5-2,2.4-3.4,5-3.8c0.1,0,0.2-0.1,0.2-0.3
					c0-0.1-0.1-0.2-0.2-0.2c-1.1-0.1-2.2-0.1-3.3,0c-6.5,0.6-11.5,4.6-11.9,9.2c-4.7-0.5-8.9-3.2-10.4-6.8c0-0.1-0.2-0.2-0.3-0.2
					s-0.2,0.1-0.2,0.2c-0.4,4.8,1.3,7.8,5,10.9c-5.4-2.1-11.4-2.2-17.3,0.5c-0.1,0.1-0.2,0.2-0.1,0.3c0,0.1,0.1,0.2,0.2,0.2
					c4.9,0.2,8.4,1.8,11.7,5.1c-18.3-5.1-33.1,6.2-28,23.1c0,0.1,0.1,0.2,0.3,0.2s0.2-0.1,0.2-0.2c0.9-9.7,7.7-16.1,17.9-17.1
					c-5.4,2.1-11,7-11.6,15.5c0,0.1,0.1,0.2,0.2,0.3c0.1,0,0.2,0,0.3-0.1c2.8-6.2,8.3-9.3,14.2-9.8c-6.3,2.6-10.4,8.6-11.6,16.4
					c0,0.1,0.1,0.2,0.2,0.3c0.1,0,0.2,0,0.3-0.1c3.9-7.6,12.2-12.8,22.4-8.8c10.6,4.1,15.3,16.4,16.3,25c0,0.1,0.1,0.2,0.2,0.2
					c0.1,0,0.2-0.1,0.3-0.2c3.7-15.7-3.6-31.9-16.6-38.8c7.1,2,13.4,6.3,17,13.4c8.3,1,14,3.9,16.9,9.2c0.1,0.1,0.2,0.2,0.3,0.1
					c0.1,0,0.2-0.1,0.2-0.3c-0.2-2.1-0.9-6.3-4.1-8.3c7,0,12.5-0.9,17.8-3C237.2-74.8,237.2-74.9,237.2-75z M207.7-21.6
					c0.1-0.1,0.2-0.1,0.3,0s0.1,0.2,0,0.3c-1.6,2.8-0.1,6.8,3.1,6.8c5.7,0,8.5-10.8,7.6-20.6c-2.2,5.8-4,8.1-7.3,10.8
					c-0.1,0.1-0.2,0.1-0.3,0s-0.1-0.2-0.1-0.3c4.9-9.1,5.9-16.1,5.9-24.1c-1.5,6-3.2,9.3-8.1,14.4c-0.1,0.1-0.2,0.1-0.3,0
					s-0.1-0.2-0.1-0.3c5.3-11.6,4.9-24.4,0.9-34.3c0-0.1,0-0.2,0.1-0.3s0.2-0.1,0.3,0c5.2,2.6,8.3,4.2,12.8,10.4
					c-1.4,7.4-0.2,11,3.2,17.2c-3.9-9.9-1.8-23.9,8.2-29.6c0.1-0.1,0.2,0,0.3,0.1s0.1,0.2,0,0.3c-3.8,4-6.5,10.6-4.2,17.9
					c-1.5-10.4,7.6-19.1,17.8-19.1c9.6,0,16.2,7.5,15.6,14.9c-0.5,7.4-5.4,11-9.7,12.5c-0.1,0-0.2,0-0.3-0.1s-0.1-0.2,0-0.3
					c5.6-5.7,6.4-16.5-3.6-19.8c5.9,5.1,3.7,16.8-5.7,17.7c-0.1,0-0.2-0.1-0.3-0.2c0-0.1,0-0.2,0.1-0.3c2-1.3,3.7-3.8,3.7-6.6
					c0-4.7-3.4-6.5-5.7-6.5c-3.4,0-6.3,3.3-6.3,8.2c0,5.8,5.3,10.7,12,11.4c6.6,0.7,12.8-2.2,15.8-6.5c0.1-0.1,0.2-0.1,0.3-0.1
					c0.1,0.1,0.2,0.2,0.1,0.3c-3,11.7-16.8,16.9-26.9,9.5c6.6,7.5,17,7.6,25.7-0.1c0.1-0.1,0.2-0.1,0.3,0c0.1,0.1,0.1,0.2,0.1,0.3
					c-2.7,5.4-9.3,11.8-18.6,10.9c-8.6-0.9-13.5-9-14.5-15.7c-0.6,8.5,1.4,14.5,8.8,20.1c0.1,0.1,0.1,0.2,0.1,0.3s-0.2,0.2-0.3,0.1
					c-6.8-2-12.2-5.4-15-12.5c0,6.2,2.1,12.4,7.5,16.5c0.1,0.1,0.1,0.2,0.1,0.3c-0.1,0.1-0.2,0.2-0.3,0.1c-3.5-1-6.2-2.5-8.1-5.2
					c-1.3,11.1-6.5,17.7-12.5,17.7c-4.1,0-7.2-3-7.2-7.9C202.9-15.4,204.4-19.4,207.7-21.6z M108.5-113.2c3.2-3.9,9.5-5.4,16.4-4
					c-0.5-4.3,0.3-8.8,1.6-11.5c0.1-0.1,0.2-0.2,0.3-0.1c0.1,0,0.2,0.1,0.2,0.3c-0.4,8.8,4.6,15.8,13.4,18.9
					c-6.9-4.8-8.9-14.2-5.6-19.1c0.1-0.1,0.2-0.1,0.3-0.1s0.2,0.2,0.2,0.3c-0.4,2.1,0.6,4.7,2.7,6.7c2.9,2.8,6.8,3.5,8.8,1.4
					c2-2,1.2-5.9-1.7-8.8c-1.1-1-2.3-1.8-3.4-2.2c-0.1,0-0.2-0.2-0.2-0.3c0-0.1,0.1-0.2,0.2-0.2c6.4-0.6,10.8,3.3,13.5,7.9
					c2.8,4.7,7.6,8.4,13.2,7.7c0.1,0,0.2,0.1,0.3,0.2c0,0.1,0,0.2-0.1,0.3c-2.8,1.7-5.9,2.4-9.9,1.1c5.8,4.9,14,7.7,21.8,5.2
					c0.1,0,0.2,0,0.3,0.1s0.1,0.2,0,0.3c-5.9,6.6-17.7,6.7-25.1,1.4c3,4.3,7.1,7.5,14.3,8.5c0.1,0,0.2,0.1,0.2,0.2
					c0,0.1-0.1,0.2-0.2,0.3c-8.3,3.1-16.6,0-23.4-8.2c3,6.4,7.9,11.5,14.8,14c0.1,0,0.2,0.2,0.2,0.3s-0.1,0.2-0.2,0.2
					c-3.9,0.1-7.5-0.9-12.3-3.6c3.5,5.7,2.7,15.6-2.4,22.3c-0.1,0.1-0.2,0.1-0.3,0.1s-0.2-0.2-0.1-0.3c1.2-7.2-1.3-15.3-5.6-19.6
					c2.2,7.6,0,14.6-5.9,19.6c-0.1,0.1-0.2,0.1-0.3,0c-0.1,0-0.1-0.1-0.2-0.2c-1.2-9.4-11.8-19-20.6-19.8c-0.1,0-0.2-0.1-0.2-0.2
					c0-0.1,0.1-0.2,0.2-0.3c4.3-1,8.7-0.5,12.4,1c-2.7-2.9-5.9-5.1-9.6-6.2c-0.1,0-0.2-0.2-0.2-0.3s0.1-0.2,0.2-0.2
					c4.5-0.3,8.9,1,12.7,3.5c-4.4-6.6-11-11.5-19.4-13.5c-0.1,0-0.2-0.1-0.2-0.3c0-0.1,0.1-0.2,0.2-0.2c11.9-1.3,21.7,3.3,28.2,11.9
					c-1.6-4.9-6.4-9.8-12.9-12.6c-5.8-2.5-11.8-2.9-16.4-1.5c-0.1,0-0.2,0-0.3-0.1C108.4-113,108.4-113.1,108.5-113.2z M161.4-37.6
					c-4.8-10.5-4.5-18.7-0.6-29.1c0-0.1,0.2-0.2,0.3-0.2s0.2,0.1,0.2,0.3c-0.6,12.6,2.8,21.7,10.3,27.8c-8.2-9.9-4.4-29.6,8.8-29.6
					c9.6,0,17.5,8,19.5,17.5c0,0.1,0,0.2-0.2,0.3c-0.1,0-0.2,0-0.3-0.1c-2.8-4.8-7.4-7.9-12.5-7.9c-8.1,0-10.5,6.5-10.5,11
					c0,6.2,4.9,11.3,8.7,11.3c3.4,0,5-2.8,5-4.9c0-3.9-3-7.2-6.4-8.2c-0.1,0-0.2-0.2-0.2-0.3s0.1-0.2,0.2-0.2c4.1,0,7.6,1.9,9.6,5.6
					c0.3-2.9,0.3-4.7-0.6-7.7c0-0.1,0-0.2,0.1-0.3s0.2,0,0.3,0.1c7.4,9.4,3.8,25.6-2,32.4c5.5-4,10.4-12.6,10.3-24.4
					c0-0.1,0.1-0.2,0.2-0.2c0.1,0,0.2,0,0.3,0.2c4.1,10.3,1.9,29.2-9.3,39.9c2.9,0.4,5.9,0.3,9.1-0.7c0.1,0,0.2,0,0.3,0.1
					s0,0.2-0.1,0.3c-4.1,3.5-9.8,4.5-15.3,4.5c4.7-5.5,3.1-16.6-4.4-16.6c-5.3,0-7.8,8.3-3.6,12.8c0.1,0.1,0.1,0.2,0,0.3
					s-0.2,0.1-0.3,0.1c-4.8-1.7-9.9-5.8-9.9-11c0-5,4.8-9.4,11.8-9.1c-8.8-2.5-18.1,0.3-22.9,6.3c-0.1,0.1-0.2,0.1-0.3,0.1
					c-0.1-0.1-0.2-0.2-0.1-0.3c2.8-10.7,12-15.2,23.4-13.7c-9.3-3.8-23.2-0.5-29.4,7.3c-0.1,0.1-0.2,0.1-0.3,0.1s-0.2-0.2-0.1-0.3
					C152.2-30.7,155.7-35.7,161.4-37.6z"/>
			</g>
			<g>
				<path class="st1" d="M26.7-56.9c0,0.1,0.1,0.2,0.2,0.2c12.9,0.1,24.8,3.3,34,11.5c-8-5.6-22.9-7.5-31.5-3.6
					c-0.1,0-0.2,0.2-0.1,0.3c0,0.1,0.1,0.2,0.3,0.2c10.7-0.3,19.3,3,26,9C48.7-38.9,43-34.6,43-29.5c0,0.1,0.1,0.2,0.2,0.2
					c0.1,0,0.2,0,0.3-0.1c1.1-2.5,4.7-3.8,8.6-2.9c4.2,1,7,4.2,6.3,7.2c-0.5,2-2.4,3.4-5,3.8c-0.1,0-0.2,0.1-0.2,0.3
					c0,0.1,0.1,0.2,0.2,0.2c1.1,0.1,2.2,0.1,3.3,0c6.5-0.6,11.5-4.6,11.9-9.2c4.7,0.5,8.9,3.2,10.4,6.8c0,0.1,0.2,0.2,0.3,0.2
					c0.1,0,0.2-0.1,0.2-0.2c0.4-4.8-1.3-7.8-5-10.9c5.4,2.1,11.4,2.2,17.3-0.5c0.1,0,0.2-0.2,0.1-0.3c0-0.1-0.1-0.2-0.2-0.2
					c-4.9-0.2-8.4-1.8-11.7-5.1c18.3,5.1,33.1-6.2,28-23.1c0-0.1-0.1-0.2-0.3-0.2c-0.1,0-0.2,0.1-0.2,0.2
					c-0.9,9.7-7.7,16.1-17.9,17.1c5.4-2.1,11-7,11.6-15.5c0-0.1-0.1-0.2-0.2-0.3c-0.1,0-0.2,0-0.3,0.1c-2.8,6.2-8.3,9.3-14.2,9.8
					c6.3-2.6,10.4-8.6,11.6-16.4c0-0.1-0.1-0.2-0.2-0.3c-0.1,0-0.2,0-0.3,0.1c-3.9,7.6-12.2,12.8-22.4,8.8
					c-10.6-4.1-15.3-16.4-16.3-25c0-0.1-0.1-0.2-0.2-0.2c-0.1,0-0.2,0.1-0.3,0.2C54.7-69.2,62-53,75-46.1c-7.1-2-13.4-6.3-17-13.4
					c-8.3-1-14-3.9-16.9-9.2c-0.1-0.1-0.2-0.2-0.3-0.1c-0.1,0-0.2,0.1-0.2,0.3c0.2,2.1,0.9,6.3,4.1,8.3c-7,0-12.5,0.9-17.8,3
					C26.7-57.2,26.7-57,26.7-56.9z M56.2-110.4c-0.1,0.1-0.2,0.1-0.3,0s-0.1-0.2,0-0.3c1.6-2.8,0.1-6.8-3.1-6.8
					c-5.7,0-8.5,10.8-7.6,20.6c2.2-5.8,4-8.1,7.3-10.8c0.1-0.1,0.2-0.1,0.3,0s0.1,0.2,0.1,0.3C48-98.3,47-91.3,47-83.3
					c1.5-6,3.2-9.3,8.1-14.4c0.1-0.1,0.2-0.1,0.3,0s0.1,0.2,0.1,0.3c-5.3,11.6-4.9,24.4-0.9,34.3c0,0.1,0,0.2-0.1,0.3
					s-0.2,0.1-0.3,0C49-65.4,45.9-67,41.4-73.2c1.4-7.4,0.2-11-3.2-17.2c3.9,9.9,1.8,23.9-8.2,29.6c-0.1,0.1-0.2,0-0.3-0.1
					c-0.1-0.1-0.1-0.2,0-0.3c3.8-4,6.5-10.6,4.2-17.9C35.4-68.7,26.3-60,16.1-60C6.5-60-0.1-67.5,0.5-74.9c0.5-7.4,5.4-11,9.7-12.5
					c0.1,0,0.2,0,0.3,0.1s0,0.2,0,0.3c-5.6,5.7-6.4,16.5,3.6,19.8c-5.9-5.1-3.7-16.8,5.7-17.7c0.1,0,0.2,0.1,0.3,0.2
					c0,0.1,0,0.2-0.1,0.3c-2,1.3-3.7,3.8-3.7,6.6c0,4.7,3.4,6.5,5.7,6.5c3.4,0,6.3-3.3,6.3-8.2c0-5.8-5.3-10.7-12-11.4
					c-6.6-0.7-12.8,2.2-15.7,6.5c-0.1,0.1-0.2,0.1-0.3,0.1C0-84.6,0-84.7,0-84.8c3-11.7,16.8-16.9,26.9-9.5
					c-6.6-7.5-17-7.6-25.7,0.1c-0.1,0.1-0.2,0.1-0.3,0s-0.1-0.2-0.1-0.3c2.7-5.4,9.3-11.8,18.6-10.9c8.6,0.9,13.5,9,14.5,15.7
					c0.6-8.5-1.4-14.5-8.8-20.1c-0.1-0.1-0.1-0.2-0.1-0.3c0.1-0.1,0.2-0.2,0.3-0.1c6.8,2,12.2,5.4,15,12.5c0-6.2-2.1-12.4-7.5-16.5
					c-0.1-0.1-0.1-0.2-0.1-0.3c0.1-0.1,0.2-0.2,0.3-0.1c3.5,1,6.2,2.5,8.1,5.2c1.3-11.1,6.5-17.7,12.5-17.7c4.1,0,7.2,3,7.2,7.9
					C61-116.6,59.5-112.6,56.2-110.4z M155.4-18.8c-3.2,3.9-9.5,5.4-16.4,4c0.5,4.3-0.3,8.8-1.6,11.5c-0.1,0.1-0.2,0.2-0.3,0.1
					c-0.1,0-0.2-0.1-0.2-0.3c0.4-8.8-4.6-15.8-13.4-18.9c6.9,4.8,8.9,14.2,5.6,19.1c-0.1,0.1-0.2,0.1-0.3,0.1s-0.2-0.2-0.2-0.3
					c0.4-2.1-0.6-4.7-2.7-6.7c-2.9-2.8-6.8-3.5-8.8-1.4c-2,2-1.2,5.9,1.7,8.8c1.1,1,2.3,1.8,3.4,2.2c0.1,0,0.2,0.2,0.2,0.3
					s-0.1,0.2-0.2,0.2c-6.4,0.6-10.8-3.3-13.5-7.9c-2.8-4.7-7.6-8.4-13.2-7.7c-0.1,0-0.2-0.1-0.3-0.2c0-0.1,0-0.2,0.1-0.3
					c2.8-1.7,5.9-2.4,9.9-1.1c-5.8-4.9-14-7.7-21.8-5.2c-0.1,0-0.2,0-0.3-0.1c-0.1-0.1-0.1-0.2,0-0.3c5.9-6.6,17.7-6.7,25.1-1.4
					c-3-4.3-7.1-7.5-14.3-8.5c-0.1,0-0.2-0.1-0.2-0.2c0-0.1,0.1-0.2,0.2-0.3c8.3-3.1,16.6,0,23.4,8.2c-3-6.4-7.9-11.5-14.8-14
					c-0.1,0-0.2-0.2-0.2-0.3s0.1-0.2,0.2-0.2c3.9-0.1,7.5,0.9,12.3,3.6c-3.5-5.7-2.7-15.6,2.4-22.3c0.1-0.1,0.2-0.1,0.3-0.1
					c0.1,0,0.2,0.2,0.1,0.3c-1.2,7.2,1.3,15.3,5.6,19.6c-2.2-7.6,0-14.6,5.9-19.6c0.1-0.1,0.2-0.1,0.3,0c0.1,0,0.1,0.1,0.2,0.2
					c1.2,9.4,11.8,19,20.6,19.8c0.1,0,0.2,0.1,0.2,0.2c0,0.1-0.1,0.2-0.2,0.3c-4.3,1-8.7,0.5-12.4-1c2.7,2.9,5.9,5.1,9.6,6.2
					c0.1,0,0.2,0.2,0.2,0.3c0,0.1-0.1,0.2-0.2,0.2c-4.5,0.3-8.9-1-12.7-3.5c4.4,6.6,11,11.5,19.4,13.5c0.1,0,0.2,0.1,0.2,0.3
					c0,0.1-0.1,0.2-0.2,0.2c-11.9,1.3-21.7-3.3-28.2-11.9c1.6,4.9,6.4,9.8,12.9,12.6c5.8,2.5,11.8,2.9,16.4,1.5c0.1,0,0.2,0,0.3,0.1
					C155.5-19,155.5-18.9,155.4-18.8z M102.5-94.3c4.8,10.5,4.5,18.7,0.6,29.1c0,0.1-0.2,0.2-0.3,0.2c-0.1,0-0.2-0.1-0.2-0.3
					c0.6-12.6-2.8-21.7-10.3-27.8c8.2,9.9,4.4,29.6-8.8,29.6c-9.6,0-17.5-8-19.5-17.5c0-0.1,0-0.2,0.2-0.3c0.1,0,0.2,0,0.3,0.1
					c2.8,4.8,7.4,7.9,12.5,7.9c8.1,0,10.5-6.5,10.5-11c0-6.2-4.9-11.3-8.7-11.3c-3.4,0-5,2.8-5,4.9c0,3.9,3,7.2,6.4,8.2
					c0.1,0,0.2,0.2,0.2,0.3S80.3-82,80.2-82c-4.1,0-7.6-1.9-9.6-5.6c-0.3,2.9-0.3,4.7,0.6,7.7c0,0.1,0,0.2-0.1,0.3s-0.2,0-0.3-0.1
					c-7.4-9.4-3.8-25.6,2-32.4c-5.5,4-10.4,12.6-10.3,24.4c0,0.1-0.1,0.2-0.2,0.2c-0.1,0-0.2,0-0.3-0.2c-4.1-10.3-1.9-29.2,9.3-39.9
					c-2.9-0.4-5.9-0.3-9.1,0.7c-0.1,0-0.2,0-0.3-0.1s0-0.2,0.1-0.3c4.1-3.5,9.8-4.5,15.3-4.5c-4.7,5.5-3.1,16.6,4.4,16.6
					c5.3,0,7.8-8.3,3.6-12.8c-0.1-0.1-0.1-0.2,0-0.3c0.1-0.1,0.2-0.1,0.3-0.1c4.8,1.7,9.9,5.8,9.9,11c0,5-4.8,9.4-11.8,9.1
					c8.8,2.5,18.1-0.3,22.9-6.3c0.1-0.1,0.2-0.1,0.3-0.1c0.1,0.1,0.2,0.2,0.1,0.3c-2.8,10.7-12,15.2-23.4,13.7
					c9.3,3.8,23.2,0.5,29.4-7.3c0.1-0.1,0.2-0.1,0.3-0.1c0.1,0.1,0.2,0.2,0.1,0.3C111.8-101.2,108.3-96.3,102.5-94.3z"/>
				<path class="st2" d="M128.9-75c0-0.1-0.1-0.2-0.2-0.2c-12.9-0.1-24.8-3.3-34-11.5c8,5.6,22.9,7.5,31.5,3.6
					c0.1-0.1,0.2-0.2,0.1-0.3c0-0.1-0.1-0.2-0.3-0.2c-10.7,0.3-19.3-3-26-9c6.9-0.4,12.6-4.7,12.6-9.8c0-0.1-0.1-0.2-0.2-0.2
					s-0.2,0-0.3,0.1c-1.1,2.5-4.7,3.8-8.6,2.9c-4.2-1-7-4.2-6.3-7.2c0.5-2,2.4-3.4,5-3.8c0.1,0,0.2-0.1,0.2-0.3
					c0-0.1-0.1-0.2-0.2-0.2c-1.1-0.1-2.2-0.1-3.3,0c-6.5,0.6-11.5,4.6-11.9,9.2c-4.7-0.5-8.9-3.2-10.4-6.8c0-0.1-0.2-0.2-0.3-0.2
					c-0.1,0-0.2,0.1-0.2,0.2c-0.4,4.8,1.3,7.8,5,10.9c-5.4-2.1-11.4-2.2-17.3,0.5c-0.1,0.1-0.2,0.2-0.1,0.3c0,0.1,0.1,0.2,0.2,0.2
					c4.9,0.2,8.4,1.8,11.7,5.1c-18.3-5.1-33.1,6.2-28,23.1c0,0.1,0.1,0.2,0.3,0.2c0.1,0,0.2-0.1,0.2-0.2C49-78.3,55.8-84.7,66-85.7
					c-5.4,2.1-11,7-11.6,15.5c0,0.1,0.1,0.2,0.2,0.3c0.1,0,0.2,0,0.3-0.1c2.8-6.2,8.3-9.3,14.2-9.8c-6.3,2.6-10.4,8.6-11.6,16.4
					c0,0.1,0.1,0.2,0.2,0.3c0.1,0,0.2,0,0.3-0.1C61.9-70.8,70.2-76,80.4-72C91-67.9,95.7-55.6,96.7-47c0,0.1,0.1,0.2,0.2,0.2
					s0.2-0.1,0.3-0.2c3.7-15.7-3.6-31.9-16.6-38.8c7.1,2,13.4,6.3,17,13.4c8.3,1,14,3.9,16.9,9.2c0.1,0.1,0.2,0.2,0.3,0.1
					c0.1,0,0.2-0.1,0.2-0.3c-0.2-2.1-0.9-6.3-4.1-8.3c7,0,12.5-0.9,17.8-3C128.8-74.8,128.9-74.9,128.9-75z M99.4-21.6
					c0.1-0.1,0.2-0.1,0.3,0c0.1,0.1,0.1,0.2,0,0.3c-1.6,2.8-0.1,6.8,3.1,6.8c5.7,0,8.5-10.8,7.6-20.6c-2.2,5.8-4,8.1-7.3,10.8
					c-0.1,0.1-0.2,0.1-0.3,0c-0.1-0.1-0.1-0.2-0.1-0.3c4.9-9.1,5.9-16.1,5.9-24.1c-1.5,6-3.2,9.3-8.1,14.4c-0.1,0.1-0.2,0.1-0.3,0
					c-0.1-0.1-0.1-0.2-0.1-0.3c5.3-11.6,4.9-24.4,0.9-34.3c0-0.1,0-0.2,0.1-0.3s0.2-0.1,0.3,0c5.2,2.6,8.3,4.2,12.8,10.4
					c-1.4,7.4-0.2,11,3.2,17.2c-3.9-9.9-1.8-23.9,8.2-29.6c0.1-0.1,0.2,0,0.3,0.1c0.1,0.1,0.1,0.2,0,0.3c-3.8,4-6.5,10.6-4.2,17.9
					c-1.5-10.4,7.6-19.1,17.8-19.1c9.6,0,16.2,7.5,15.6,14.9c-0.5,7.4-5.4,11-9.7,12.5c-0.1,0-0.2,0-0.3-0.1s-0.1-0.2,0-0.3
					c5.6-5.7,6.4-16.5-3.6-19.8c5.9,5.1,3.7,16.8-5.7,17.7c-0.1,0-0.2-0.1-0.3-0.2c0-0.1,0-0.2,0.1-0.3c2-1.3,3.7-3.8,3.7-6.6
					c0-4.7-3.4-6.5-5.7-6.5c-3.4,0-6.3,3.3-6.3,8.2c0,5.8,5.3,10.7,12,11.4c6.6,0.7,12.8-2.2,15.8-6.5c0.1-0.1,0.2-0.1,0.3-0.1
					c0.1,0.1,0.2,0.2,0.1,0.3c-3,11.7-16.8,16.9-26.9,9.5c6.6,7.5,17,7.6,25.7-0.1c0.1-0.1,0.2-0.1,0.3,0s0.1,0.2,0.1,0.3
					c-2.7,5.4-9.3,11.8-18.6,10.9c-8.6-0.9-13.5-9-14.5-15.7C121-34,123-28,130.4-22.4c0.1,0.1,0.1,0.2,0.1,0.3
					c-0.1,0.1-0.2,0.2-0.3,0.1c-6.8-2-12.2-5.4-15-12.5c0,6.2,2.1,12.4,7.5,16.5c0.1,0.1,0.1,0.2,0.1,0.3c-0.1,0.1-0.2,0.2-0.3,0.1
					c-3.5-1-6.2-2.5-8.1-5.2c-1.3,11.1-6.5,17.7-12.5,17.7c-4.1,0-7.2-3-7.2-7.9C94.6-15.4,96.1-19.4,99.4-21.6z M0.2-113.2
					c3.2-3.9,9.5-5.4,16.4-4c-0.5-4.3,0.3-8.8,1.6-11.5c0.1-0.1,0.2-0.2,0.3-0.1c0.1,0,0.2,0.1,0.2,0.3c-0.4,8.8,4.6,15.8,13.4,18.9
					c-6.9-4.8-8.9-14.2-5.6-19.1c0.1-0.1,0.2-0.1,0.3-0.1c0.1,0,0.2,0.2,0.2,0.3c-0.4,2.1,0.6,4.7,2.7,6.7c2.9,2.8,6.8,3.5,8.8,1.4
					c2-2,1.2-5.9-1.7-8.8c-1.1-1-2.3-1.8-3.4-2.2c-0.1,0-0.2-0.2-0.2-0.3c0-0.1,0.1-0.2,0.2-0.2c6.4-0.6,10.8,3.3,13.5,7.9
					c2.8,4.7,7.6,8.4,13.2,7.7c0.1,0,0.2,0.1,0.3,0.2c0,0.1,0,0.2-0.1,0.3c-2.8,1.7-5.9,2.4-9.9,1.1c5.8,4.9,14,7.7,21.8,5.2
					c0.1,0,0.2,0,0.3,0.1c0.1,0.1,0.1,0.2,0,0.3c-5.9,6.6-17.7,6.7-25.1,1.4c3,4.3,7.1,7.5,14.3,8.5c0.1,0,0.2,0.1,0.2,0.2
					c0,0.1-0.1,0.2-0.2,0.3c-8.3,3.1-16.6,0-23.4-8.2c3,6.4,7.9,11.5,14.8,14c0.1,0,0.2,0.2,0.2,0.3s-0.1,0.2-0.2,0.2
					c-3.9,0.1-7.5-0.9-12.3-3.6c3.5,5.7,2.7,15.6-2.4,22.3c-0.1,0.1-0.2,0.1-0.3,0.1s-0.2-0.2-0.1-0.3c1.2-7.2-1.3-15.3-5.6-19.6
					c2.2,7.6,0,14.6-5.9,19.6c-0.1,0.1-0.2,0.1-0.3,0c-0.1,0-0.1-0.1-0.2-0.2c-1.2-9.4-11.8-19-20.6-19.8c-0.1,0-0.2-0.1-0.2-0.2
					c0-0.1,0.1-0.2,0.2-0.3c4.3-1,8.7-0.5,12.4,1c-2.7-2.9-5.9-5.1-9.6-6.2c-0.1,0-0.2-0.2-0.2-0.3s0.1-0.2,0.2-0.2
					c4.5-0.3,8.9,1,12.7,3.5c-4.4-6.6-11-11.5-19.4-13.5c-0.1,0-0.2-0.1-0.2-0.3c0-0.1,0.1-0.2,0.2-0.2c11.9-1.3,21.7,3.3,28.2,11.9
					c-1.6-4.9-6.4-9.8-12.9-12.6c-5.8-2.5-11.8-2.9-16.4-1.5c-0.1,0-0.2,0-0.3-0.1C0.1-113,0.1-113.1,0.2-113.2z M53.1-37.6
					c-4.8-10.5-4.5-18.7-0.6-29.1c0-0.1,0.2-0.2,0.3-0.2s0.2,0.1,0.2,0.3C52.4-54,55.8-44.9,63.3-38.8c-8.2-9.9-4.4-29.6,8.8-29.6
					c9.6,0,17.5,8,19.5,17.5c0,0.1,0,0.2-0.2,0.3c-0.1,0-0.2,0-0.3-0.1c-2.8-4.8-7.4-7.9-12.5-7.9c-8.1,0-10.5,6.5-10.5,11
					c0,6.2,4.9,11.3,8.7,11.3c3.4,0,5-2.8,5-4.9c0-3.9-3-7.2-6.4-8.2c-0.1,0-0.2-0.2-0.2-0.3s0.1-0.2,0.2-0.2c4.1,0,7.6,1.9,9.6,5.6
					c0.3-2.9,0.3-4.7-0.6-7.7c0-0.1,0-0.2,0.1-0.3s0.2,0,0.3,0.1c7.4,9.4,3.8,25.6-2,32.4c5.5-4,10.4-12.6,10.3-24.4
					c0-0.1,0.1-0.2,0.2-0.2s0.2,0,0.3,0.2c4.1,10.3,1.9,29.2-9.3,39.9C87.2-3.9,90.2-4,93.4-5c0.1,0,0.2,0,0.3,0.1
					c0.1,0.1,0,0.2-0.1,0.3c-4.1,3.5-9.8,4.5-15.3,4.5c4.7-5.5,3.1-16.6-4.4-16.6c-5.3,0-7.8,8.3-3.6,12.8c0.1,0.1,0.1,0.2,0,0.3
					S70.1-3.5,70-3.5c-4.8-1.7-9.9-5.8-9.9-11c0-5,4.8-9.4,11.8-9.1c-8.8-2.5-18.1,0.3-22.9,6.3c-0.1,0.1-0.2,0.1-0.3,0.1
					c-0.1-0.1-0.2-0.2-0.1-0.3c2.8-10.7,12-15.2,23.4-13.7c-9.3-3.8-23.2-0.5-29.4,7.3c-0.1,0.1-0.2,0.1-0.3,0.1s-0.2-0.2-0.1-0.3
					C43.8-30.7,47.3-35.7,53.1-37.6z"/>
			</g>
		</g>
	</g>
</pattern>
<g id="Layer_1" class="st3">
	<g id="Layer_2_1_">
		<g class="st4">
			<path class="st5" d="M249,62v103H7V62H249 M256,55H0v117h256V55L256,55z"/>
		</g>
		<g class="st4">
			<circle class="st6" cx="128" cy="128" r="117"/>
		</g>
	</g>
	<g id="Layer_1_1_">
		<g class="st4">
			<path class="st7" d="M139.2,130.1c-13.3,0-23.8-6.3-23.8-14.2h3c0,5.6,8,10.4,18,11.1C137.9,127.1,139.2,128.5,139.2,130.1
				L139.2,130.1z"/>
			<path class="st7" d="M144.2,129c2.8,0.7,5.9,1.1,9.2,1.1c0-1.6-1.2-3-2.8-3.1c-2.4-0.2-4.6-0.6-6.7-1.2c0.2,0.8,0.3,1.7,0.3,2.6
				V129z"/>
			<path class="st7" d="M136.9,111L136.9,111h-1.5h-1.5h-12.8h-1.5H96.8c0,1.7,1.3,3,3,3h19.9h1.5c3.7,0,7.2,0.7,10.2,1.9
				c0.7,0.3,1.4,0.6,2.1,1c3.7,1.9,6.4,4.6,7.7,7.7c0.5,1.1,0.7,2.3,0.8,3.6c0,0.1,0,0.2,0,0.3v1.5h3v-1v-0.6c0-0.9-0.1-1.8-0.3-2.6
				c-1-4.9-4.8-9.2-10.2-11.8h1c11.5,0,20.8,6.5,20.8,14.4v1.5h3v-1.5C159.2,119.2,149.4,111.6,136.9,111z"/>
		</g>
		<g class="st4">
			<path class="st8" d="M139.2,130.1c-13.3,0-23.8-6.3-23.8-14.2h3c0,5.6,8,10.4,18,11.1C137.9,127.1,139.2,128.5,139.2,130.1
				L139.2,130.1z"/>
			<path class="st8" d="M144.2,129c2.8,0.7,5.9,1.1,9.2,1.1c0-1.6-1.2-3-2.8-3.1c-2.4-0.2-4.6-0.6-6.7-1.2c0.2,0.8,0.3,1.7,0.3,2.6
				V129z"/>
			<path class="st8" d="M136.9,111L136.9,111h-1.5h-1.5h-12.8h-1.5H96.8c0,1.7,1.3,3,3,3h19.9h1.5c3.7,0,7.2,0.7,10.2,1.9
				c0.7,0.3,1.4,0.6,2.1,1c3.7,1.9,6.4,4.6,7.7,7.7c0.5,1.1,0.7,2.3,0.8,3.6c0,0.1,0,0.2,0,0.3v1.5h3v-1v-0.6c0-0.9-0.1-1.8-0.3-2.6
				c-1-4.9-4.8-9.2-10.2-11.8h1c11.5,0,20.8,6.5,20.8,14.4v1.5h3v-1.5C159.2,119.2,149.4,111.6,136.9,111z"/>
		</g>
		<g class="st4">
			<g>
				<pattern  id="SVGID_1_" xlink:href="#Jive" patternTransform="matrix(1 0 0 -1 102.5 -15201.0215)">
				</pattern>
				<path class="st9" d="M103.8,134.8h1.2c0.6,0,1.1,0.3,1.1,0.9c0,0.6-0.4,0.9-1.1,0.9h-0.9v1.4h-0.3L103.8,134.8z M104.1,136.4h1
					c0.6,0,0.8-0.3,0.8-0.7s-0.3-0.7-0.8-0.7h-1V136.4z"/>
				<pattern  id="SVGID_2_" xlink:href="#Jive" patternTransform="matrix(1 0 0 -1 102.5 -15201.0215)">
				</pattern>
				<path class="st10" d="M109.5,136.5v1.5h-0.3v-3.1h1.2c0.7,0,1,0.3,1,0.8c0,0.4-0.3,0.7-0.6,0.7c0.4,0.1,0.6,0.3,0.6,0.8v0.1
					c0,0.2,0,0.5,0,0.6h-0.3c-0.1-0.1,0-0.4,0-0.6v-0.1c0-0.5-0.2-0.7-0.8-0.7H109.5z M109.5,136.3h0.8c0.6,0,0.9-0.2,0.9-0.6
					c0-0.4-0.3-0.6-0.8-0.6h-0.9V136.3z"/>
				<pattern  id="SVGID_3_" xlink:href="#Jive" patternTransform="matrix(1 0 0 -1 102.5 -15201.0215)">
				</pattern>
				<path class="st11" d="M115.1,136.9l-0.4,1.1h-0.3l1.3-3.1h0.3l1.3,3.1H117l-0.4-1.1H115.1z M116.5,136.7
					c-0.4-0.9-0.6-1.4-0.7-1.6l0,0c-0.1,0.2-0.3,0.8-0.6,1.6H116.5z"/>
				<pattern  id="SVGID_4_" xlink:href="#Jive" patternTransform="matrix(1 0 0 -1 102.5 -15201.0215)">
				</pattern>
				<path class="st12" d="M120.4,134.8h0.3v1.4h2.1v-1.4h0.3v3.1h-0.3v-1.5h-2.1v1.5h-0.3V134.8z"/>
				<pattern  id="SVGID_5_" xlink:href="#Jive" patternTransform="matrix(1 0 0 -1 102.5 -15201.0215)">
				</pattern>
				<path class="st13" d="M127.4,136.7v0.2h-1.2v-0.2H127.4z"/>
				<pattern  id="SVGID_6_" xlink:href="#Jive" patternTransform="matrix(1 0 0 -1 102.5 -15201.0215)">
				</pattern>
				<path class="st14" d="M130.6,134.8h1.2c0.6,0,1.1,0.3,1.1,0.9c0,0.6-0.4,0.9-1.1,0.9h-0.9v1.4h-0.3V134.8z M130.9,136.4h1
					c0.6,0,0.8-0.3,0.8-0.7s-0.3-0.7-0.8-0.7h-1V136.4z"/>
				<pattern  id="SVGID_7_" xlink:href="#Jive" patternTransform="matrix(1 0 0 -1 102.5 -15201.0215)">
				</pattern>
				<path class="st15" d="M136.3,136.5v1.5H136v-3.1h1.2c0.7,0,1,0.3,1,0.8c0,0.4-0.3,0.7-0.6,0.7c0.4,0.1,0.6,0.3,0.6,0.8v0.1
					c0,0.2,0,0.5,0,0.6h-0.3c-0.1-0.1,0-0.4,0-0.6v-0.1c0-0.5-0.2-0.7-0.8-0.7H136.3z M136.3,136.3h0.8c0.6,0,0.9-0.2,0.9-0.6
					c0-0.4-0.3-0.6-0.8-0.6h-0.9V136.3z"/>
				<pattern  id="SVGID_8_" xlink:href="#Jive" patternTransform="matrix(1 0 0 -1 102.5 -15201.0215)">
				</pattern>
				<path class="st16" d="M142,136.9l-0.4,1.1h-0.3l1.3-3.1h0.3l1.3,3.1h-0.3l-0.5-1.1H142z M143.3,136.7c-0.4-0.9-0.6-1.4-0.7-1.6
					l0,0c-0.1,0.2-0.3,0.8-0.6,1.6H143.3z"/>
				<pattern  id="SVGID_9_" xlink:href="#Jive" patternTransform="matrix(1 0 0 -1 102.5 -15201.0215)">
				</pattern>
				<path class="st17" d="M147.2,134.8h0.3v1.4h2.1v-1.4h0.3v3.1h-0.3v-1.5h-2.1v1.5h-0.3V134.8z"/>
			</g>
		</g>
		<g class="st4">
			<path class="st8" d="M139.2,130.1c-13.3,0-23.8-6.3-23.8-14.2h3c0,5.6,8,10.4,18,11.1C137.9,127.1,139.2,128.5,139.2,130.1
				L139.2,130.1z"/>
			<path class="st8" d="M144.2,129c2.8,0.7,5.9,1.1,9.2,1.1c0-1.6-1.2-3-2.8-3.1c-2.4-0.2-4.6-0.6-6.7-1.2c0.2,0.8,0.3,1.7,0.3,2.6
				V129z"/>
			<path class="st8" d="M136.9,111L136.9,111h-1.5h-1.5h-12.8h-1.5H96.8c0,1.7,1.3,3,3,3h19.9h1.5c3.7,0,7.2,0.7,10.2,1.9
				c0.7,0.3,1.4,0.6,2.1,1c3.7,1.9,6.4,4.6,7.7,7.7c0.5,1.1,0.7,2.3,0.8,3.6c0,0.1,0,0.2,0,0.3v1.5h3v-1v-0.6c0-0.9-0.1-1.8-0.3-2.6
				c-1-4.9-4.8-9.2-10.2-11.8h1c11.5,0,20.8,6.5,20.8,14.4v1.5h3v-1.5C159.2,119.2,149.4,111.6,136.9,111z"/>
		</g>
	</g>
	<g id="Layer_3">
		<g class="st4">
			<path class="st8" d="M136.9,111L136.9,111h-1.5h-1.5h-12.8h-1.5H96.8c0,1.7,1.3,3,3,3h19.9h1.5c3.7,0,7.2,0.7,10.2,1.9
				c0.7,0.3,1.4,0.6,2.1,1c3.7,1.9,6.4,4.6,7.7,7.7c0.5,1.1,0.7,2.3,0.8,3.6c0,0.1,0,0.2,0,0.3v1.5h3v-1v-0.6c0-0.9-0.1-1.8-0.3-2.6
				c-1-4.9-4.8-9.2-10.2-11.8h1c11.5,0,20.8,6.5,20.8,14.4v1.5h3v-1.5C159.2,119.2,149.4,111.6,136.9,111z"/>
			<path class="st8" d="M131.5,142.8l-10.9-26.2h3.2l11.6,27.9l0,0C133.9,145.1,132.1,144.3,131.5,142.8z"/>
		</g>
		<g class="st4">
			<g>
				<path class="st8" d="M138.1,136.2c0-0.2,0.1-0.5,0.1-0.7h0.2c0,0.1-0.1,0.3-0.1,0.5c0.2-0.3,0.6-0.6,0.9-0.6l-0.1,0.2
					c-0.5,0-0.9,0.4-1,0.9l-0.3,1.1h-0.2L138.1,136.2z"/>
				<path class="st8" d="M143.6,137.2c0,0.2-0.1,0.4-0.1,0.6h-0.2c0-0.1,0-0.2,0.1-0.4c-0.1,0.2-0.4,0.4-0.9,0.4s-0.7-0.3-0.7-0.5
					c0-0.6,0.7-0.8,1.2-0.8c0.3,0,0.5,0,0.6,0v-0.2c0.1-0.2,0-0.6-0.5-0.6s-0.6,0.2-0.7,0.4H142c0.1-0.3,0.4-0.6,1-0.6
					c0.5,0,0.9,0.2,0.7,0.7L143.6,137.2z M143.5,136.6c-0.1,0-0.3,0-0.6,0c-0.4,0-0.9,0.1-0.9,0.6c0,0.2,0.1,0.4,0.5,0.4
					C143,137.6,143.3,137.2,143.5,136.6L143.5,136.6z"/>
				<path class="st8" d="M147.7,134.5l-0.3,1.5c0.2-0.3,0.5-0.5,0.9-0.5c0.3,0,0.8,0.1,0.6,0.8l-0.3,1.4h-0.2l0.3-1.4
					c0.1-0.4,0-0.7-0.4-0.7c-0.5,0-0.8,0.4-1,0.9l-0.3,1.2h-0.2l0.8-3.3h0.1V134.5z"/>
			</g>
		</g>
	</g>
	<g id="Layer_4">
		<g class="st4">
			<polygon class="st8" points="10,64 91,64 91,118 82,118 82,73 10,73 			"/>
			<rect x="100" y="64" class="st8" width="9" height="54"/>
			<rect x="64" y="82" class="st8" width="9" height="81"/>
			<rect x="82" y="127" class="st8" width="9" height="36"/>
		</g>
	</g>
	<g id="Layer_5" class="st4">
		<g>
			<path class="st18" d="M242.2,96.5l3.9,22.4l3.9,22.4c-24.7,0-48.3-20-52.6-44.7l0,0c-4.4-24.7-27.9-44.7-52.6-44.7H55.4
				C30.7,51.7,7.1,31.7,2.7,7h22.4H137h5.8c46.2,0,90.3,37.5,98.4,83.7L242.2,96.5z"/>
			<path class="st18" d="M117.3,84.4L117.3,84.4L137,196.3c4.4,24.7,28,44.7,52.7,44.7l0,0L170,129.1
				C165.6,104.4,142,84.4,117.3,84.4z"/>
			<path class="st19" d="M317.3,141.2L317.3,141.2l-11-62.5C299.2,39.1,261.5,7,221.9,7h-17.8l26.3,22.4
				c16.9,14.3,28.3,33.8,31.9,54l2.3,13.1C269,121.2,292.5,141.2,317.3,141.2z"/>
			<path class="st19" d="M203.9,136.3c7.5,24.9,25.4,27.3,50.1,27.3l11.8,67.1l0,0c-24.7,0-48.3-20-52.6-44.7L203.9,136.3z"/>
		</g>
		<g>
			<path class="st18" d="M701.9,101l4.1,23l4.1,23c-25.4,0-49.6-20.6-54.1-46l0,0c-4.5-25.4-28.7-46-54.1-46h-92
				c-25.4,0-49.6-20.6-54.1-46h23h115h6c47.5,0,92.8,38.5,101.2,86L701.9,101z"/>
			<path class="st18" d="M573.5,88.5L573.5,88.5l20.3,115c4.5,25.4,28.7,46,54.1,46l0,0l-20.3-115
				C623.1,109.1,598.9,88.5,573.5,88.5z"/>
			<path class="st19" d="M779,147L779,147l-11.3-64.3C760.5,42,721.7,9,681,9h-18.3l27,23c17.3,14.7,29.1,34.7,32.8,55.5l2.4,13.5
				C729.4,126.4,753.6,147,779,147z"/>
			<path class="st19" d="M662.5,141.9c7.7,25.5,26.1,28.1,51.5,28.1l12.2,69l0,0c-25.4,0-49.6-20.6-54.1-46L662.5,141.9z"/>
		</g>
		<g>
			<g>
				<path class="st20" d="M787.9,182.4c-0.3-3.2-1.6-5.7-3.8-7.4c-2.3-1.8-5.5-2.7-9.7-2.7c-2.8,0-5.1,0.4-6.9,1.1
					c-1.8,0.7-3.2,1.7-4.2,3c-0.9,1.3-1.4,2.7-1.4,4.3c-0.1,1.3,0.2,2.5,0.8,3.5s1.5,1.9,2.6,2.7s2.5,1.4,4.1,2s3.4,1.1,5.5,1.5
					l7.6,1.7c4.4,1,8.3,2.2,11.6,3.8c3.4,1.6,6.2,3.5,8.5,5.7s4,4.7,5.2,7.6s1.8,6.1,1.8,9.6c0,5.6-1.4,10.4-4.2,14.4
					s-6.8,7.1-12.1,9.2c-5.2,2.1-11.6,3.2-19,3.2s-13.9-1.1-19.4-3.3s-9.8-5.6-12.9-10.1c-3.1-4.5-4.6-10.3-4.7-17.2h20.5
					c0.2,2.9,0.9,5.2,2.3,7.1c1.4,1.9,3.2,3.4,5.6,4.3c2.4,1,5.1,1.5,8.3,1.5c2.9,0,5.4-0.4,7.4-1.2s3.6-1.9,4.7-3.2
					c1.1-1.4,1.7-3,1.7-4.8c0-1.7-0.5-3.1-1.6-4.3c-1-1.2-2.6-2.2-4.7-3.1c-2.1-0.9-4.8-1.7-8-2.4l-9.3-2.2
					c-7.7-1.8-13.7-4.6-18.2-8.6c-4.4-3.9-6.6-9.3-6.6-16c0-5.5,1.4-10.3,4.4-14.4c3-4.1,7.1-7.3,12.3-9.7c5.3-2.3,11.2-3.5,18-3.5
					c6.9,0,12.8,1.2,17.9,3.5c5.1,2.3,9,5.6,11.8,9.8s4.2,9,4.3,14.6L787.9,182.4L787.9,182.4z"/>
				<path class="st20" d="M817.6,173.2v-17.4h75v17.4h-26.9v71.3h-21.1v-71.3H817.6z"/>
				<path class="st20" d="M986.9,200.1c0,9.8-1.9,18-5.6,24.8c-3.8,6.8-8.8,11.9-15.2,15.5c-6.4,3.5-13.6,5.3-21.5,5.3
					c-8,0-15.1-1.8-21.5-5.3c-6.4-3.6-11.4-8.7-15.2-15.5c-3.7-6.8-5.6-15-5.6-24.8s1.9-18,5.6-24.8c3.7-6.8,8.8-11.9,15.2-15.5
					c6.4-3.5,13.6-5.3,21.5-5.3s15.1,1.8,21.5,5.3s11.5,8.7,15.2,15.5C985,182.1,986.9,190.4,986.9,200.1z M965,200.1
					c0-5.8-0.8-10.7-2.4-14.6c-1.6-4-4-7-7-9.1s-6.7-3.1-11-3.1c-4.2,0-7.9,1-11,3.1s-5.4,5.1-7,9.1s-2.4,8.9-2.4,14.6
					s0.8,10.7,2.4,14.6c1.6,4,4,7,7,9.1c3.1,2.1,6.7,3.1,11,3.1s7.9-1,11-3.1c3-2.1,5.4-5.1,7-9.1C964.2,210.8,965,205.9,965,200.1z
					"/>
				<path class="st20" d="M999.4,244.5v-88.7h36.7c6.6,0,12.4,1.2,17.2,3.6c4.8,2.4,8.6,5.8,11.2,10.2s3.9,9.7,3.9,15.7
					c0,6.2-1.3,11.4-4,15.7s-6.5,7.6-11.4,9.8s-10.8,3.4-17.5,3.4h-23.2v-16.9h19.2c3.2,0,5.9-0.4,8.1-1.3s3.8-2.2,5-3.9
					c1.1-1.7,1.7-4,1.7-6.7s-0.6-5-1.7-6.8s-2.8-3.2-5-4.1c-2.2-0.9-4.9-1.4-8.1-1.4h-10.6v71.4H999.4z M1049.3,203.9l22.1,40.6
					H1048l-21.7-40.6H1049.3z"/>
				<path class="st20" d="M1080.1,244.5v-88.7h61.9v17.4h-40.4v18.2h37.3v17.5h-37.3v18.2h40.4v17.4L1080.1,244.5L1080.1,244.5z"/>
			</g>
		</g>
		<g>
			<g>
				<path class="st18" d="M737.6,147.5V10h59.3c10.2,0,19.1,1.9,26.8,5.6s13.6,9.1,17.9,16c4.2,7,6.4,15.3,6.4,25.1
					s-2.2,18.1-6.5,24.9c-4.4,6.8-10.5,11.9-18.3,15.3c-7.9,3.4-17,5.2-27.5,5.2h-35.4v-29h27.9c4.4,0,8.1-0.5,11.2-1.6
					c3.1-1.1,5.5-2.9,7.2-5.3s2.5-5.6,2.5-9.5s-0.8-7.1-2.5-9.6s-4.1-4.3-7.2-5.5c-3.1-1.2-6.9-1.8-11.2-1.8H775v107.7H737.6z
					 M818.1,84.4l34.4,63.1H812l-33.6-63.1H818.1z"/>
				<path class="st18" d="M899.5,147.5h-40.3L904.6,10h51l45.4,137.5h-40.3l-30.1-99.6h-1.1L899.5,147.5z M892,93.3h75.7v27.9H892
					V93.3z"/>
				<path class="st18" d="M1014.1,147.5V10h37.3v53.7h49.4V10h37.3v137.5h-37.3V93.8h-49.4v53.7H1014.1z"/>
			</g>
		</g>
	</g>
	<g id="Layer_6">
		<g>
			<g class="st4">
				
					<linearGradient id="SVGID_10_" gradientUnits="userSpaceOnUse" x1="60.5263" y1="283.9202" x2="197.5263" y2="34.4202" gradientTransform="matrix(1 0 0 -1 0 258)">
					<stop  offset="4.607372e-04" style="stop-color:#03A9F4"/>
					<stop  offset="0.4161" style="stop-color:#686CB4"/>
					<stop  offset="0.8194" style="stop-color:#C5347A"/>
					<stop  offset="1" style="stop-color:#E91E63"/>
				</linearGradient>
				<path class="st21" d="M16.5,6.5h66.9c42.7,0,83.4,29.7,91,66.3L188,139l0,0c-14.2,0-27.8-9.9-30.3-22.1l-9.1-44.2
					c-5-24.4-32.2-44.2-60.6-44.2H46.8C32.5,28.6,19,18.7,16.5,6.5L16.5,6.5z"/>
				
					<linearGradient id="SVGID_11_" gradientUnits="userSpaceOnUse" x1="60.5049" y1="283.9085" x2="197.5049" y2="34.4085" gradientTransform="matrix(1 0 0 -1 0 258)">
					<stop  offset="4.607372e-04" style="stop-color:#03A9F4"/>
					<stop  offset="0.4161" style="stop-color:#686CB4"/>
					<stop  offset="0.8194" style="stop-color:#C5347A"/>
					<stop  offset="1" style="stop-color:#E91E63"/>
				</linearGradient>
				<path class="st22" d="M191.1,141.5H188c-15.3,0-30-10.8-32.8-24.1l-9.1-44.2C141.3,49.9,115.2,31,87.9,31H46.8
					C31.4,31.1,16.7,20.3,14,7l-0.6-3h70c43.8,0,85.7,30.6,93.4,68.3L191.1,141.5z M19.8,9c3.7,9.7,15.1,17.1,27,17.1H88
					c29.5,0,57.8,20.7,63.1,46.2l9.1,44.2c2.1,10.2,12.9,18.7,24.8,19.9l-13-63.1C164.6,37.8,124.9,9,83.4,9H19.8z"/>
			</g>
			<g class="st4">
				
					<linearGradient id="SVGID_12_" gradientUnits="userSpaceOnUse" x1="36.4552" y1="270.7029" x2="173.4552" y2="21.2029" gradientTransform="matrix(1 0 0 -1 0 258)">
					<stop  offset="4.607372e-04" style="stop-color:#03A9F4"/>
					<stop  offset="0.4161" style="stop-color:#686CB4"/>
					<stop  offset="0.8194" style="stop-color:#C5347A"/>
					<stop  offset="1" style="stop-color:#E91E63"/>
				</linearGradient>
				<path class="st23" d="M92.5,50.7L92.5,50.7c14.2,0,27.8,9.9,30.3,22.1l36.4,176.7l0,0c-14.2,0-27.8-9.9-30.3-22.1L92.5,50.7z"/>
				
					<linearGradient id="SVGID_13_" gradientUnits="userSpaceOnUse" x1="36.3784" y1="270.6607" x2="173.3784" y2="21.1607" gradientTransform="matrix(1 0 0 -1 0 258)">
					<stop  offset="4.607372e-04" style="stop-color:#03A9F4"/>
					<stop  offset="0.4161" style="stop-color:#686CB4"/>
					<stop  offset="0.8194" style="stop-color:#C5347A"/>
					<stop  offset="1" style="stop-color:#E91E63"/>
				</linearGradient>
				<path class="st24" d="M162.2,252h-3.1c-15.3,0-30-10.8-32.8-24.1l-37-179.7h3.1c15.3,0,30,10.8,32.8,24.1L162.2,252z M95.6,53.3
					l35.7,173.6c2.1,10.2,12.9,18.7,24.8,19.9L120.4,73.3C118.3,63.1,107.5,54.6,95.6,53.3z"/>
			</g>
			
				<linearGradient id="SVGID_14_" gradientUnits="userSpaceOnUse" x1="97" y1="185.2" x2="97" y2="185.2" gradientTransform="matrix(1 0 0 -1 0 258)">
				<stop  offset="4.607372e-04" style="stop-color:#03A9F4"/>
				<stop  offset="0.4161" style="stop-color:#686CB4"/>
				<stop  offset="0.8194" style="stop-color:#C5347A"/>
				<stop  offset="1" style="stop-color:#E91E63"/>
			</linearGradient>
			<path class="st25" d="M97,72.8"/>
			<g class="st4">
				<g>
					
						<linearGradient id="SVGID_15_" gradientUnits="userSpaceOnUse" x1="63.9663" y1="285.8092" x2="200.9663" y2="36.3092" gradientTransform="matrix(1 0 0 -1 0 258)">
						<stop  offset="4.607372e-04" style="stop-color:#03A9F4"/>
						<stop  offset="0.4161" style="stop-color:#686CB4"/>
						<stop  offset="0.8194" style="stop-color:#C5347A"/>
						<stop  offset="1" style="stop-color:#E91E63"/>
					</linearGradient>
					<path class="st26" d="M180.4,227.4c2.5,12.2,16.1,22.1,30.3,22.1l-18.2-88.4c-9.4,0-18.6-2.2-27-6L180.4,227.4z"/>
					
						<linearGradient id="SVGID_16_" gradientUnits="userSpaceOnUse" x1="64.2045" y1="285.9399" x2="201.2045" y2="36.44" gradientTransform="matrix(1 0 0 -1 0 258)">
						<stop  offset="4.607372e-04" style="stop-color:#03A9F4"/>
						<stop  offset="0.4161" style="stop-color:#686CB4"/>
						<stop  offset="0.8194" style="stop-color:#C5347A"/>
						<stop  offset="1" style="stop-color:#E91E63"/>
					</linearGradient>
					<path class="st27" d="M213.8,252h-3.1c-15.3,0-30-10.8-32.8-24.1l-15.8-77l4.5,2c8.3,3.8,17.3,5.7,26,5.7h2L213.8,252z
						 M168.9,159.3l13.9,67.6c2.1,10.2,12.9,18.7,24.8,19.9l-17.1-83.2C183.3,163.4,176,161.9,168.9,159.3z"/>
				</g>
			</g>
			<g class="st4">
				<g>
					
						<linearGradient id="SVGID_17_" gradientUnits="userSpaceOnUse" x1="131.0526" y1="322.6461" x2="268.0526" y2="73.1461" gradientTransform="matrix(1 0 0 -1 0 258)">
						<stop  offset="4.607372e-04" style="stop-color:#03A9F4"/>
						<stop  offset="0.4161" style="stop-color:#686CB4"/>
						<stop  offset="0.8194" style="stop-color:#C5347A"/>
						<stop  offset="1" style="stop-color:#E91E63"/>
					</linearGradient>
					<path class="st28" d="M225.9,72.8l13.6,66.3c-14.2,0-27.8-9.9-30.3-22.1l-9.9-48.3c0,0-0.1,0-0.1-0.1
						c-6.2-23.6-22.6-44.8-44.5-60c20.7,4.3,39.6,15.3,53,29.8c3.5,3.8,6.6,7.8,9.2,12.1C221.1,57.5,224.3,64.9,225.9,72.8z"/>
					
						<linearGradient id="SVGID_18_" gradientUnits="userSpaceOnUse" x1="131.1613" y1="322.7058" x2="268.1613" y2="73.2058" gradientTransform="matrix(1 0 0 -1 0 258)">
						<stop  offset="4.607372e-04" style="stop-color:#03A9F4"/>
						<stop  offset="0.4161" style="stop-color:#686CB4"/>
						<stop  offset="0.8194" style="stop-color:#C5347A"/>
						<stop  offset="1" style="stop-color:#E91E63"/>
					</linearGradient>
					<path class="st29" d="M242.6,141.5h-3.1c-15.3,0-30-10.8-32.8-24.1L197,70.1V70l-0.2-0.9C191,46.8,175.5,26,153.3,10.5l-10.1-7
						L155.3,6c21,4.4,40.2,15.3,54.3,30.6c3.6,4,6.8,8.1,9.5,12.4c4.6,7.4,7.8,15.2,9.4,23.1L242.6,141.5z M201.3,67l0.2,0.1
						l10.1,49.3c2.1,10.2,12.9,18.7,24.8,19.9l-13-63.1c-1.5-7.3-4.5-14.6-8.8-21.5c-2.5-4-5.5-8-8.9-11.7
						c-10.6-11.5-24.3-20.4-39.4-25.7C183.8,29.2,196,47.5,201.3,67z"/>
				</g>
			</g>
		</g>
	</g>
	<g id="Layer_7">
		<g class="st4">
			<path class="st8" d="M222.6,100l3.2,18l0,0c-5,0-9.7-4-10.6-9l0,0c-3.3-18.9-12.8-27-22.8-27h-162c-5,0-9.7-4-10.6-9H19h171.9
				C205.8,73,220,85.1,222.6,100z"/>
			<path class="st8" d="M194,91L194,91c5,0,9.7,4,10.6,9l9.5,54l0,0c-5,0-9.7-4-10.6-9L194,91z"/>
			<path class="st8" d="M195.6,100"/>
			<g>
				<path class="st8" d="M221.6,145c0.9,5,5.6,9,10.6,9l-4.8-27c-3.3,0-6.5-0.9-9.4-2.4L221.6,145z"/>
			</g>
			<g>
				<path class="st8" d="M240.6,100l3.2,18c-5,0-9.7-4-10.6-9l-1.9-10.7l0,0c-2.2-9.6-7.9-18.2-15.5-24.4
					c7.2,1.8,13.8,6.2,18.5,12.2c1.2,1.5,2.3,3.2,3.2,4.9C239,93.8,240.1,96.8,240.6,100z"/>
			</g>
		</g>
		<g class="st4">
			<text transform="matrix(1 0 0 1 99.0024 154.5801)" class="st5 st30 st31">TYPE</text>
		</g>
		<g id="SHAPE" class="st4">
			<text transform="matrix(1 0 0 1 74.7212 154.4385)" class="st5 st30 st31">SHAPE</text>
		</g>
		<g id="STYLE" class="st4">
			<text transform="matrix(1 0 0 1 79.8413 154.4385)" class="st5 st30 st31">STYLE</text>
		</g>
		<g id="LOGO" class="st4">
			<text transform="matrix(1 0 0 1 76.5334 154.4385)" class="st5 st30 st31">LOGO</text>
		</g>
		<g id="CUSTOM" class="st4">
			<text transform="matrix(1 0 0 1 28.2988 118.2461)" class="st5 st30 st31">CUSTOM</text>
		</g>
	</g>
</g>
<g id="Layer_2">
	<circle cx="128" cy="128" r="125.1"/>
	<g>
		<path class="st32" d="M97.4,112.9L97.4,112.9l12.2,69.4c2.7,15.3,17.4,27.7,32.7,27.7l0,0l-12.2-69.4
			C127.4,125.3,112.7,112.9,97.4,112.9z"/>
		<g>
			<path class="st32" d="M190.7,168.4c-15.3,0-29.9-12.4-32.7-27.7l0-0.1l-0.1,0c-5.3-30.4-31.1-53.7-62.6-55.2h-2.8l-26.1,0
				C50.7,85.4,36,73.1,33.3,58l58.9,0H98c6.9,0.4,13.5,1.6,19.9,3.4c10.3,2.9,20,7.6,28.5,13.7c19.7,13.9,33.8,35.1,38.3,59.7l0.2,1
				L190.7,168.4z"/>
		</g>
	</g>
</g>
</svg>
