<svg id="Layer_2" data-name="Layer 2" xmlns="http://www.w3.org/2000/svg" viewBox="0 0 256 256"><title>mstile-</title><path d="M128,2.93A125.07,125.07,0,1,0,253.07,128,125.08,125.08,0,0,0,128,2.93Zm-6.37,179.34-12.22-69.38c15.32,0,30,12.4,32.68,27.72L154.3,210C139,210,124.35,197.58,121.63,182.27ZM170,140.73l0-.12-.14,0a66.77,66.77,0,0,0-62.61-55.19H104.4l-26.13,0C62.72,85.37,48,73.1,45.34,58l58.93,0H110a95,95,0,0,1,19.92,3.41,94.39,94.39,0,0,1,66.82,73.36l.17,1,5.74,32.6C187.35,168.44,172.71,156,170,140.73Z"/></svg>