<svg id="Layer_2" data-name="Layer 2" xmlns="http://www.w3.org/2000/svg" viewBox="0 0 256 256"><defs><style>.cls-1{fill:#fff;}</style></defs><title>mstile-</title><circle cx="128" cy="128" r="125.07"/><path class="cls-1" d="M97.41,112.89h0l12.22,69.38C112.35,197.58,127,210,142.3,210h0l-12.21-69.37C127.36,125.29,112.73,112.89,97.41,112.89Z"/><path class="cls-1" d="M190.66,168.44c-15.31,0-29.95-12.4-32.67-27.71l0-.12-.14,0A66.77,66.77,0,0,0,95.21,85.44H92.4l-26.13,0C50.72,85.37,36,73.1,33.34,58l58.93,0H98a95,95,0,0,1,19.92,3.41,94.39,94.39,0,0,1,66.82,73.36l.17,1Z"/></svg>